<svg width="104" height="60" viewBox="0 0 104 60" fill="none" xmlns="http://www.w3.org/2000/svg">
<path d="M91.6076 40.5967C91.4331 40.6299 90.9388 40.4075 90.1247 39.9294C89.3542 39.4431 88.8528 38.5892 88.6206 37.3677C88.4071 36.0071 88.3557 34.5478 88.4663 32.9899C88.6122 31.3801 88.7695 29.949 88.9382 28.6965C89.0507 27.8615 89.1444 27.1656 89.2193 26.609C89.3379 26.044 89.3848 25.6961 89.3599 25.5652C89.3163 25.5735 89.0846 25.6627 88.665 25.8329C88.289 25.9948 87.808 26.1993 87.2222 26.4463C85.1675 27.2889 83.5731 27.8181 82.4388 28.0337C81.3482 28.2411 80.2859 27.765 79.2518 26.6056C78.9403 26.3936 78.5001 25.9801 77.9311 25.3651C77.3622 24.75 76.9117 24.0446 76.5796 23.249C76.2911 22.445 76.3765 21.7055 76.8358 21.0306C77.0647 19.857 77.2644 19.0054 77.4349 18.4758C77.6054 17.9462 77.7136 17.564 77.7593 17.3293C77.8487 17.0863 77.8727 16.8557 77.8312 16.6376C77.8583 16.542 77.8988 16.3987 77.9529 16.2077C78.007 16.0166 78.0829 15.8213 78.1806 15.622C78.4488 14.8929 78.8323 13.9386 79.3313 12.7589C79.8738 11.5709 80.4382 10.3788 81.0244 9.18249C81.6459 7.9343 82.205 6.83356 82.7018 5.88028C83.1903 4.88338 83.5623 4.22503 83.8179 3.90523C84.0548 3.72459 84.4755 3.44119 85.0801 3.05503C85.7283 2.66058 86.2051 2.43432 86.5105 2.37626C86.8595 2.30991 87.2323 2.48764 87.6289 2.90945C88.0609 3.27934 88.4315 3.68348 88.7409 4.12188C89.0502 4.56028 89.2215 4.86672 89.2547 5.04122C89.2547 5.04122 89.2411 5.08899 89.2141 5.18453C89.1871 5.28008 89.1289 5.44935 89.0394 5.69235C88.9147 5.98728 88.7193 6.38604 88.4533 6.88864C88.2308 7.38294 87.8806 8.03714 87.4026 8.85125C86.9952 9.56152 86.5109 10.5802 85.9496 11.9074C85.38 13.1909 84.827 14.5617 84.2906 16.0197C83.7895 17.4258 83.3726 18.6803 83.0398 19.7832C82.7071 20.8861 82.5739 21.6121 82.6403 21.961C82.6818 22.1792 82.7804 22.3412 82.9361 22.4472C83.1272 22.5013 83.4409 22.4869 83.8771 22.4039C84.4277 22.2088 84.9127 22.0262 85.3324 21.856C85.7957 21.6775 86.2153 21.5073 86.5914 21.3454C87.0546 21.167 87.4525 21.0009 87.7849 20.8473C88.109 20.6501 88.4155 20.4788 88.7042 20.3335C89.0283 20.1363 89.313 19.9692 89.5581 19.8322C89.8386 19.6432 90.0713 19.4408 90.2563 19.2248C90.6968 18.689 90.9775 18.0255 91.0982 17.2341C91.219 16.4427 91.4426 15.3605 91.7692 13.9876C91.9523 13.0488 92.152 12.1972 92.3683 11.4328C92.62 10.6166 92.8404 9.87404 93.0296 9.20524C93.7387 6.99116 94.377 5.35557 94.9444 4.29846C95.5036 3.19772 95.8268 2.63906 95.914 2.62247C96.0449 2.59759 96.3834 2.71402 96.9296 2.97178C97.4759 3.22954 98.0044 3.51326 98.5153 3.82294C98.9224 4.06196 99.2598 4.2916 99.5277 4.51188C99.7873 4.68853 99.9254 4.82048 99.942 4.90773C100.042 5.43122 100.014 6.00141 99.8604 6.61829C99.7418 7.18325 99.5307 7.8562 99.2272 8.63713C98.9237 9.41806 98.592 10.4077 98.2323 11.6062C97.8184 12.9957 97.4482 14.3769 97.1216 15.7499C96.7867 17.0792 96.4737 18.4043 96.1824 19.7253C95.8829 21.0027 95.6228 22.25 95.4022 23.4672C95.1816 24.6844 94.9704 25.8319 94.7685 26.91C94.2981 29.6663 94.0046 31.6883 93.8878 32.9762C93.7711 34.264 93.7583 35.1479 93.8495 35.6277C93.9761 36.0557 94.1339 36.4099 94.3228 36.6904C94.4306 37.2575 94.3598 37.836 94.1103 38.4258C93.8526 38.972 93.491 39.4476 93.0255 39.8525C92.5601 40.2574 92.0875 40.5055 91.6076 40.5967Z" fill="#FFACD4"/>
<path d="M70.2063 45.0725C70.092 45.1847 69.7689 45.2687 69.2371 45.3246C68.749 45.3722 68.2006 45.3409 67.592 45.2306C67.0354 45.1556 66.5795 45.0163 66.2243 44.8126C66.0166 44.6713 65.8048 44.5081 65.5889 44.3232C65.3646 44.0946 65.1944 43.6749 65.0783 43.0642C65.0058 42.4452 64.9719 41.4346 64.9765 40.0325C64.9851 39.1268 65.029 38.1692 65.1083 37.1597C65.1876 36.1502 65.2699 35.2757 65.3554 34.5363C65.4408 33.7968 65.4835 33.4271 65.4835 33.4271C65.685 33.2984 65.866 32.5859 66.0263 31.2898C66.2304 29.9854 66.4282 28.4109 66.6199 26.5664C66.6783 25.9225 66.7888 24.8393 66.9513 23.3167C67.1139 21.7942 67.2847 20.3153 67.4638 18.88C67.6159 17.5402 67.8001 16.4882 68.0164 15.7238C68.2327 14.9595 68.3408 14.5773 68.3408 14.5773C68.3408 14.5773 68.1081 14.7797 67.6427 15.1847C67.1772 15.5896 66.5798 16.1325 65.8505 16.8136C65.1212 17.4947 64.3648 18.2713 63.5814 19.1435C62.9227 19.7207 62.1882 20.4932 61.3777 21.4609C60.6026 22.3767 59.8681 23.1492 59.1741 23.7784C58.1704 24.9184 57.4753 25.6608 57.0888 26.0055C56.746 26.3419 56.3575 26.4383 55.9234 26.2949C55.2651 25.9228 54.587 25.3285 53.8894 24.5119C53.227 23.6434 52.9853 22.9662 53.1641 22.4802C53.243 22.4199 53.4893 22.1697 53.9028 21.7295C54.3599 21.281 54.87 20.7546 55.4332 20.1503C55.9963 19.546 56.5023 18.9978 56.9511 18.5056C57.4436 18.0052 57.7865 17.6688 57.9797 17.4965C58.1106 17.4716 58.3215 17.2733 58.6124 16.9015C58.9034 16.5298 59.2202 16.1758 59.5631 15.8394C59.7315 15.5361 60.3829 14.8021 61.5175 13.6371C62.652 12.4722 63.8749 11.1775 65.1861 9.75294C66.6094 8.44269 67.8956 7.36193 69.0446 6.51066C70.1936 5.65939 70.8595 5.23898 71.0423 5.24942C71.1731 5.22454 71.5075 5.31917 72.0455 5.5333C72.627 5.73914 73.195 5.99276 73.7496 6.29414C74.3041 6.59552 74.628 6.87294 74.7214 7.12639C75.0412 7.382 75.0431 8.10487 74.7269 9.29501C74.6271 9.7208 74.4804 10.4945 74.2868 11.6162C74.085 12.6942 73.8726 13.955 73.6499 15.3986C73.4625 16.7902 73.2751 18.1819 73.0877 19.5736C72.9356 20.9133 72.8157 22.0661 72.7282 23.032C72.6363 24.4507 72.5082 25.5599 72.3438 26.3596C72.223 27.151 72.0982 27.9205 71.9691 28.6683C71.8754 29.3641 71.7878 30.33 71.7064 31.5659C71.5337 32.322 71.3766 33.2785 71.235 34.4354C71.1286 35.5405 71.0441 36.6414 70.9815 37.7381C70.9105 38.7913 70.8718 39.6574 70.8653 40.3367C70.6988 41.3628 70.5935 42.3546 70.5496 43.3122C70.5056 44.2698 70.3912 44.8566 70.2063 45.0725Z" fill="#FFACD4"/>
<path d="M41.7945 49.0504C41.4891 49.1085 40.9013 49.1073 40.0309 49.0467C39.2042 48.9779 38.3256 48.8738 37.395 48.7343C36.4998 48.5429 35.775 48.2965 35.2205 47.9951C33.4967 47.012 32.1625 45.8192 31.2178 44.4168C30.2649 42.9707 29.5695 41.4531 29.1318 39.8638C28.7376 38.2663 28.5128 36.727 28.4572 35.246C28.4062 32.3628 28.8829 29.4018 29.8872 26.3632C30.8832 23.281 32.2759 20.6205 34.0651 18.3819C35.0086 17.1629 35.9811 16.0965 36.9826 15.1829C37.9841 14.2693 39.1102 13.5353 40.3609 12.9812C40.8159 12.759 41.4796 12.565 42.3521 12.3992C43.2599 12.1814 43.8665 12.0434 44.1719 11.9854C45.0444 11.8195 46.0414 11.8333 47.1631 12.0269C48.32 12.1685 49.3409 12.4264 50.2257 12.8006C51.1022 13.1312 51.5819 13.5146 51.6648 13.9509C51.7229 14.2562 51.7591 14.5658 51.7735 14.8794C51.788 15.1931 51.6041 15.2958 51.2219 15.1877L50.5676 15.3121L51.5952 17.1508C51.836 17.4666 52.0799 17.9175 52.3269 18.5033C52.5656 19.0455 52.7306 19.5566 52.8218 20.0365C52.9048 20.4727 52.9638 21.1395 52.9988 22.0369C53.0691 22.8823 53.0865 23.8057 53.0508 24.8069C53.0588 25.7998 53.0325 26.7314 52.972 27.6017C52.9551 28.4638 52.8967 29.1077 52.7968 29.5335C52.7157 29.8201 52.6782 30.0985 52.6844 30.3685C52.7258 30.5866 52.7632 30.7829 52.7963 30.9574C52.6882 31.3396 52.5208 32.0043 52.294 32.9514C52.0673 33.8985 51.8999 34.5632 51.7917 34.9454C51.6504 35.153 51.5267 35.3347 51.4207 35.4905C51.3584 35.638 51.431 35.7824 51.6387 35.9237C51.6636 36.0545 51.6126 36.3806 51.4857 36.902C51.3505 37.3797 51.1894 37.8398 51.0023 38.2821C50.8588 38.7162 50.7216 38.9457 50.5908 38.9706C50.5908 38.9706 50.5295 39.0049 50.4069 39.0734C50.3196 39.0899 50.2885 39.1637 50.3133 39.2945C50.3465 39.469 50.1282 39.9852 49.6585 40.8429C49.2324 41.6923 48.7013 42.5843 48.0654 43.5189C47.7121 44.038 47.1219 44.7379 46.2949 45.6183C45.4596 46.4552 44.6118 47.2266 43.7516 47.9325C42.9267 48.5866 42.2744 48.9592 41.7945 49.0504ZM40.4693 42.7934C40.9491 42.7022 41.3947 42.5497 41.8061 42.3358C42.2092 42.0784 42.5344 41.768 42.7817 41.4045C43.4674 40.7318 44.0763 39.8928 44.6084 38.8876C45.1841 37.8741 45.6041 36.7546 45.8683 35.5291C46.2238 34.7835 46.466 34.0369 46.5951 33.2891C46.7594 32.4894 46.9811 31.159 47.2601 29.2979C47.5178 28.7517 47.6458 28.1172 47.644 27.3943C47.6421 26.6714 47.5956 26.0701 47.5044 25.5902C47.4131 25.1103 47.2887 24.456 47.1311 23.6271C47.0172 22.7899 46.9935 22.0712 47.0602 21.4709C46.8445 20.3367 46.6983 19.6865 46.6215 19.5203C46.5364 19.3104 46.308 19.0601 45.9363 18.7691C45.7369 18.6714 45.4721 18.5862 45.1418 18.5134C44.8552 18.4322 44.5592 18.4207 44.2538 18.4788C43.9485 18.5368 43.5506 18.7029 43.0603 18.9769C42.6053 19.199 42.2241 19.4523 41.9165 19.7368C41.6443 19.9693 41.2995 20.0575 40.882 20.0013C40.5081 19.9368 40.3004 19.7954 40.259 19.5773C40.1429 18.9666 39.8458 19.0683 39.3677 19.8824C38.925 20.6446 38.3358 21.7058 37.6 23.0661C36.9641 24.0007 36.4413 24.9363 36.0318 25.873C35.6576 26.7578 35.4871 27.2874 35.5203 27.4619C35.5534 27.6364 35.5295 27.8669 35.4484 28.1536C35.3673 28.4402 35.2944 28.7705 35.2299 29.1443C35.0699 29.4912 34.9035 30.0426 34.7308 30.7987C34.5582 31.5547 34.3855 32.3108 34.2128 33.0668C34.0755 33.7709 33.9964 34.3058 33.9755 34.6714C34.0087 34.8459 34.0999 35.3258 34.2492 36.111C34.3902 36.8526 34.5229 37.5506 34.6473 38.205C34.7883 38.9466 34.9138 39.4877 35.0238 39.8284C35.1338 40.1691 35.2531 40.4403 35.3818 40.6418C35.5542 40.835 35.7909 41.129 36.0919 41.5238C36.3245 41.796 36.6568 42.117 37.0887 42.4869C37.556 42.8049 37.8716 43.0387 38.0357 43.1883C38.5985 43.5333 38.937 43.6498 39.0513 43.5376C39.2009 43.3736 39.6736 43.1255 40.4693 42.7934Z" fill="#FFACD4"/>
<path d="M9.59016 54.8344C9.39907 54.7803 9.04808 54.5984 8.53719 54.2888C8.06992 53.9708 7.59436 53.6092 7.11051 53.204C6.61836 52.7551 6.28197 52.4123 6.10133 52.1754C5.92898 51.9822 5.85434 51.5895 5.87738 50.9975C5.94406 50.3973 6.06464 50.0805 6.23914 50.0473C6.3866 50.1097 6.53207 49.9239 6.67554 49.4898C6.81902 49.0557 6.95835 48.5998 7.09353 48.1221C7.22041 47.6007 7.27556 47.2964 7.25897 47.2092C7.26942 47.0264 7.3536 46.8748 7.51151 46.7543C7.70475 46.582 7.87618 46.4138 8.02579 46.2498C8.17756 45.8593 8.39476 45.4564 8.67741 45.041C8.99538 44.5738 9.23854 44.1885 9.4069 43.8853C9.67295 43.3827 10.1811 42.6081 10.9313 41.5614C11.6815 40.5147 12.4058 39.4504 13.1041 38.3684C13.8295 37.1909 14.4706 36.165 15.0276 35.2906C15.5763 34.3727 15.8435 33.7569 15.829 33.4432C15.829 33.4432 15.882 33.3653 15.988 33.2096C16.1293 33.0019 16.2966 32.8119 16.4898 32.6396C16.6831 32.4672 16.9252 32.1952 17.2161 31.8235C17.5507 31.4434 17.8239 31.0977 18.0359 30.7862C18.0568 30.4206 18.1785 29.9906 18.4009 29.4963C18.6587 28.9501 18.9642 28.4174 19.3175 27.8982C19.567 27.3084 19.7863 26.6791 19.9756 26.0103C20.1565 25.2978 20.2616 24.7806 20.2908 24.4587C20.3304 23.9539 20.2329 23.6787 19.9982 23.6329C19.7552 23.5435 19.1248 23.4373 18.107 23.3144C16.9937 23.1645 15.9997 23.2857 15.125 23.678C14.2504 24.0703 13.1533 24.9569 11.8338 26.3378C11.248 26.5848 10.714 26.8671 10.232 27.1848C9.79359 27.4941 9.39575 27.6602 9.03846 27.6829C8.84737 27.6288 8.61374 27.4698 8.33756 27.2059C8.06138 26.942 7.76753 26.7041 7.45602 26.4921L6.26668 23.8027L8.08372 22.3046C9.65667 20.8303 11.1963 19.6562 12.7026 18.7822C14.2442 17.8563 15.663 17.4735 16.9592 17.6339C17.439 17.5427 17.8877 17.5252 18.3052 17.5814C18.7144 17.594 18.919 17.6003 18.919 17.6003C19.2597 17.4903 19.7946 17.5694 20.5236 17.8376C21.2962 18.0975 22.0678 18.4707 22.8383 18.957C23.6524 19.435 24.2484 19.9545 24.6262 20.5155C25.5233 21.4298 26.0256 22.6451 26.1331 24.1615C26.2406 25.6779 25.9025 27.3469 25.1187 29.1683C24.9504 29.4715 24.5742 30.1081 23.9902 31.0779C23.4061 32.0478 22.7338 33.1475 21.9731 34.3769C21.2478 35.5545 20.5671 36.6105 19.9312 37.545C19.3389 38.4713 18.9544 39.0642 18.7777 39.3238C18.4972 39.5127 18.0525 40.0267 17.4436 40.8657C16.8784 41.6964 16.2642 42.6267 15.6012 43.6568C14.9736 44.635 14.4384 45.5052 13.9957 46.2673C13.5883 46.9776 13.4283 47.3245 13.5155 47.3079C13.5051 47.4907 13.7232 47.4492 14.1699 47.1835C14.6519 46.8658 15.0768 46.6042 15.4445 46.3987C16.0574 46.0562 16.7835 45.7147 17.6228 45.3743C18.4975 44.982 19.3804 44.6334 20.2716 44.3283C21.1629 44.0232 21.9315 43.7867 22.5776 43.6187C23.2673 43.4423 23.69 43.4072 23.8458 43.5132C23.9745 43.7147 24.0565 43.7895 24.0918 43.7376C24.1625 43.6337 24.1978 43.5818 24.1978 43.5818C24.227 43.2599 24.7557 43.0689 25.784 43.009C26.8558 42.9409 27.8311 42.9588 28.7097 43.063C29.2145 43.1026 29.6185 43.2066 29.9217 43.375C30.2685 43.5351 30.4585 43.7023 30.4917 43.8768C30.4917 43.8768 30.5561 43.9776 30.6848 44.1791C30.8488 44.3288 31.0908 44.5314 31.4106 44.787C32.2164 45.2214 32.3325 45.8321 31.7589 46.6192C31.229 47.398 30.0625 47.8006 28.2594 47.827C27.1252 48.0426 26.1997 48.2864 25.483 48.5582C25.3251 48.6787 24.9626 48.7928 24.3954 48.9006C23.8283 49.0084 23.2872 49.1339 22.772 49.2771C21.9701 49.3391 21.1932 49.532 20.4411 49.8558C19.6808 50.136 18.7885 50.5543 17.7642 51.1106C17.3965 51.3161 16.8231 51.6286 16.044 52.0479C15.2649 52.4672 14.4203 52.899 13.5104 53.3432C12.6004 53.7874 11.7652 54.1496 11.0049 54.4298C10.2881 54.7017 9.81657 54.8365 9.59016 54.8344Z" fill="#FFACD4"/>
</svg>
