<svg width="104" height="60" viewBox="0 0 104 60" fill="none" xmlns="http://www.w3.org/2000/svg">
<path d="M81.6544 40.1204C80.7613 39.7026 80.2775 39.2974 80.2028 38.9048C79.9786 38.6762 79.7574 38.5827 79.5393 38.6241C79.4167 38.6926 79.2443 38.4994 79.0222 38.0444C78.8437 37.5811 78.657 37.0742 78.4619 36.5237C78.3104 35.9649 78.2399 35.5941 78.2504 35.4113C78.3585 35.0291 78.6359 34.7051 79.0826 34.4394C79.573 34.1654 80.0622 34.0046 80.5504 33.957C81.0739 33.8574 81.3906 33.978 81.5006 34.3187C81.6542 34.6511 82.0353 34.8725 82.6438 34.9828C83.2961 35.0848 84.0979 35.0227 85.0493 34.7966C86.2625 34.5208 87.3376 34.113 88.2746 33.5732C89.2553 33.0251 90.0978 32.3451 90.8022 31.5332C91.5503 30.7129 92.1863 29.7784 92.7101 28.7296C92.8993 28.0608 93.0294 27.1998 93.1004 26.1467C93.1714 25.0936 93.1759 24.1661 93.1138 23.3643C93.0518 22.5624 92.9117 22.1823 92.6936 22.2237C92.6936 22.2237 92.6209 22.0793 92.4756 21.7906C92.3739 21.4935 92.2245 21.1829 92.0272 20.8588C91.6847 20.2459 91.0586 19.6869 90.149 19.1818C89.231 18.6331 88.3722 18.2766 87.5725 18.1122C87.2506 18.083 86.618 18.2033 85.6749 18.473C84.7317 18.7427 83.9413 18.9834 83.3035 19.1951C82.6138 19.3714 82.1994 19.4502 82.0602 19.4315C81.9564 19.3608 81.9044 19.3255 81.9044 19.3255C81.678 19.3233 81.2658 19.1757 80.6676 18.8826C80.1131 18.5812 79.5762 18.2539 79.0571 17.9006C78.5815 17.539 78.323 17.2491 78.2815 17.031C78.3107 16.7091 78.4511 16.1399 78.7027 15.3237C78.9543 14.5074 79.2808 13.6091 79.682 12.6288C80.1269 11.6402 80.5759 10.6734 81.029 9.72845C81.4822 8.78347 81.9207 7.99946 82.3447 7.37644C83.3797 5.68801 84.747 4.32063 86.4465 3.27428C88.1377 2.18431 89.8859 1.51292 91.6911 1.26011C92.9645 1.0632 93.9356 1.05938 94.6044 1.24863C95.3085 1.38596 95.9887 1.75386 96.6449 2.35232C97.11 2.89671 97.3612 3.50438 97.3983 4.17533C97.4355 4.84628 97.3128 5.38943 97.0301 5.80478C96.7475 6.22013 96.3195 6.3467 95.7463 6.18448C95.0609 5.90798 94.203 5.91288 93.1726 6.19919C92.1422 6.4855 91.0712 6.91512 89.9597 7.48806C89.11 8.01123 88.4264 8.4576 87.9091 8.82718C87.3834 9.15312 87.0572 9.57676 86.9303 10.0981C86.7806 10.2622 86.6747 10.4179 86.6123 10.5654C86.5936 10.7045 86.4928 10.7689 86.31 10.7584C86.31 10.7584 86.2611 10.8581 86.1635 11.0575C86.0575 11.2133 86.0211 11.3784 86.0542 11.5529C85.8859 11.8561 85.7705 12.0815 85.7081 12.2289C85.6811 12.3245 85.5638 12.3016 85.3561 12.1603C85.3561 12.1603 85.3685 12.2257 85.3934 12.3566C85.4183 12.4874 85.4255 12.6443 85.4151 12.8271C85.4295 13.1407 85.5582 13.3423 85.8012 13.4317C86.0795 13.4691 86.6414 13.4527 87.4869 13.3824C88.6107 13.3495 89.4509 13.3706 90.0076 13.4455C90.5996 13.4686 91.5031 13.7036 92.7181 14.1506C94.0723 14.6164 95.1657 15.4933 95.9982 16.7815C96.866 18.0177 97.5012 19.4564 97.9036 21.0976C98.3414 22.6868 98.5922 24.2437 98.6561 25.7684C98.7077 26.7531 98.7178 27.5196 98.6865 28.0679C98.6551 28.6163 98.4212 29.4066 97.9846 30.4388C97.2466 32.0256 96.1961 33.5136 94.833 34.9028C93.4616 36.2483 91.9614 37.3924 90.3326 38.3349C88.7037 39.2774 87.1123 39.9416 85.5585 40.3274C84.0399 40.6613 82.7385 40.5923 81.6544 40.1204Z" fill="#FFACD4"/>
<path d="M57.5951 44.2371C57.404 44.183 57.053 44.0011 56.5421 43.6915C56.0748 43.3735 55.5993 43.0119 55.1154 42.6067C54.6233 42.1578 54.2869 41.815 54.1062 41.5781C53.9339 41.3849 53.8592 40.9923 53.8823 40.4003C53.949 39.8 54.0695 39.4832 54.244 39.4501C54.3915 39.5124 54.537 39.3266 54.6804 38.8925C54.8239 38.4584 54.9632 38.0025 55.0984 37.5248C55.2253 37.0034 55.2805 36.6991 55.2639 36.6119C55.2743 36.4291 55.3585 36.2775 55.5164 36.1571C55.7096 35.9847 55.8811 35.8165 56.0307 35.6525C56.1825 35.262 56.3997 34.8591 56.6823 34.4437C57.0003 33.9765 57.2434 33.5912 57.4118 33.288C57.6778 32.7854 58.186 32.0108 58.9362 30.9641C59.6864 29.9175 60.4107 28.8531 61.109 27.7711C61.8344 26.5936 62.4755 25.5677 63.0325 24.6933C63.5812 23.7754 63.8484 23.1596 63.8339 22.8459C63.8339 22.8459 63.8869 22.7681 63.9929 22.6123C64.1342 22.4046 64.3015 22.2146 64.4947 22.0423C64.688 21.8699 64.9301 21.5979 65.221 21.2262C65.5556 20.8461 65.8288 20.5004 66.0408 20.1889C66.0617 19.8233 66.1834 19.3933 66.4058 18.899C66.6636 18.3528 66.9691 17.8201 67.3224 17.3009C67.5719 16.7111 67.7912 16.0818 67.9805 15.413C68.1614 14.7005 68.2665 14.1833 68.2957 13.8614C68.3353 13.3566 68.2378 13.0814 68.0031 13.0356C67.7601 12.9462 67.1297 12.84 66.1119 12.7171C64.9986 12.5672 64.0046 12.6884 63.1299 13.0807C62.2553 13.473 61.1582 14.3596 59.8387 15.7405C59.2529 15.9875 58.7189 16.2698 58.2369 16.5875C57.7985 16.8968 57.4006 17.0629 57.0434 17.0856C56.8523 17.0315 56.6186 16.8725 56.3425 16.6086C56.0663 16.3447 55.7724 16.1068 55.4609 15.8948L54.2716 13.2055L56.0886 11.7074C57.6616 10.2331 59.2012 9.05891 60.7075 8.18491C62.2491 7.25899 63.6679 6.87622 64.9641 7.03661C65.4439 6.94537 65.8926 6.92786 66.3101 6.98409C66.7193 6.99669 66.9239 7.00299 66.9239 7.00299C67.2646 6.89302 67.7995 6.97213 68.5285 7.24034C69.3011 7.50025 70.0727 7.87337 70.8432 8.3597C71.6573 8.83773 72.2533 9.35724 72.6311 9.91821C73.5282 10.8325 74.0305 12.0478 74.138 13.5642C74.2455 15.0806 73.9074 16.7496 73.1236 18.571C72.9553 18.8742 72.5791 19.5108 71.9951 20.4807C71.411 21.4505 70.7387 22.5502 69.978 23.7796C69.2527 24.9572 68.572 26.0132 67.9361 26.9477C67.3438 27.874 66.9593 28.4669 66.7826 28.7265C66.5021 28.9154 66.0574 29.4294 65.4485 30.2684C64.8832 31.0991 64.2691 32.0295 63.6061 33.0595C62.9785 34.0377 62.4433 34.9079 62.0006 35.6701C61.5932 36.3803 61.4332 36.7272 61.5204 36.7106C61.51 36.8934 61.7281 36.8519 62.1748 36.5862C62.6568 36.2685 63.0817 36.0069 63.4494 35.8014C64.0623 35.4589 64.7884 35.1174 65.6277 34.777C66.5024 34.3847 67.3853 34.0361 68.2765 33.731C69.1678 33.426 69.9364 33.1894 70.5825 33.0214C71.2722 32.845 71.6949 32.8099 71.8507 32.9159C71.9794 33.1174 72.0614 33.1922 72.0967 33.1403C72.1674 33.0365 72.2027 32.9845 72.2027 32.9845C72.2319 32.6626 72.7606 32.4717 73.7889 32.4118C74.8607 32.3436 75.836 32.3616 76.7146 32.4657C77.2194 32.5054 77.6234 32.6093 77.9266 32.7777C78.2734 32.9378 78.4634 33.105 78.4966 33.2795C78.4966 33.2795 78.561 33.3803 78.6897 33.5818C78.8537 33.7315 79.0957 33.9341 79.4155 34.1897C80.2213 34.6241 80.3374 35.2348 79.7638 36.0219C79.2339 36.8007 78.0674 37.2033 76.2643 37.2297C75.1301 37.4453 74.2046 37.6891 73.4879 37.9609C73.33 38.0814 72.9675 38.1955 72.4003 38.3033C71.8332 38.4111 71.2921 38.5366 70.7769 38.6798C69.975 38.7418 69.1981 38.9348 68.446 39.2585C67.6857 39.5387 66.7934 39.957 65.7691 40.5133C65.4014 40.7188 64.828 41.0313 64.0489 41.4506C63.2698 41.8699 62.4252 42.3017 61.5153 42.7459C60.6053 43.1902 59.7701 43.5523 59.0098 43.8325C58.293 44.1044 57.8215 44.2392 57.5951 44.2371Z" fill="#FFACD4"/>
<path d="M42.6595 47.4157C42.3541 47.4737 41.7663 47.4725 40.896 47.412C40.0692 47.3431 39.1906 47.239 38.2601 47.0995C37.3648 46.9081 36.64 46.6617 36.0855 46.3603C34.3617 45.3772 33.0275 44.1844 32.0828 42.782C31.1299 41.3359 30.4345 39.8183 29.9968 38.2291C29.6026 36.6316 29.3778 35.0923 29.3222 33.6112C29.2712 30.728 29.7479 27.7671 30.7522 24.7284C31.7483 21.6462 33.1409 18.9857 34.9301 16.7471C35.8736 15.5281 36.8461 14.4618 37.8476 13.5481C38.8492 12.6345 39.9753 11.9006 41.2259 11.3464C41.6809 11.1243 42.3446 10.9303 43.2171 10.7644C44.125 10.5466 44.7315 10.4087 45.0369 10.3506C45.9094 10.1847 46.9065 10.1986 48.0281 10.3921C49.1851 10.5338 50.2059 10.7917 51.0907 11.1659C51.9672 11.4965 52.4469 11.8799 52.5298 12.3161C52.5879 12.6215 52.6241 12.931 52.6386 13.2447C52.653 13.5583 52.4691 13.6611 52.087 13.5529L51.4326 13.6774L52.4602 15.516C52.701 15.8319 52.945 16.2827 53.192 16.8685C53.4307 17.4108 53.5956 17.9218 53.6869 18.4017C53.7698 18.8379 53.8288 19.5048 53.8638 20.4021C53.9341 21.2476 53.9515 22.1709 53.9158 23.1721C53.9238 24.165 53.8975 25.0966 53.837 25.967C53.8201 26.829 53.7617 27.4729 53.6618 27.8987C53.5807 28.1854 53.5432 28.4637 53.5494 28.7337C53.5909 28.9519 53.6282 29.1482 53.6614 29.3227C53.5532 29.7048 53.3858 30.3695 53.159 31.3166C52.9323 32.2638 52.7649 32.9284 52.6567 33.3106C52.5154 33.5183 52.3917 33.7 52.2858 33.8557C52.2234 34.0032 52.296 34.1476 52.5037 34.2889C52.5286 34.4198 52.4776 34.7459 52.3507 35.2672C52.2155 35.7449 52.0544 36.205 51.8673 36.6474C51.7238 37.0815 51.5866 37.3109 51.4558 37.3358C51.4558 37.3358 51.3945 37.3701 51.2719 37.4386C51.1847 37.4552 51.1535 37.5289 51.1784 37.6598C51.2115 37.8343 50.9932 38.3504 50.5235 39.2081C50.0974 40.0576 49.5664 40.9496 48.9304 41.8841C48.5771 42.4033 47.9869 43.1031 47.1599 43.9836C46.3246 44.8204 45.4768 45.5918 44.6166 46.2978C43.7917 46.9518 43.1394 47.3244 42.6595 47.4157ZM41.3343 41.1587C41.8141 41.0674 42.2598 40.9149 42.6711 40.7011C43.0742 40.4436 43.3994 40.1332 43.6467 39.7698C44.3324 39.097 44.9413 38.258 45.4734 37.2528C46.0491 36.2393 46.4691 35.1198 46.7333 33.8944C47.0888 33.1488 47.331 32.4021 47.4601 31.6543C47.6244 30.8547 47.8461 29.5243 48.1251 27.6632C48.3829 27.117 48.5108 26.4824 48.509 25.7595C48.5072 25.0367 48.4606 24.4353 48.3694 23.9554C48.2781 23.4756 48.1537 22.8212 47.9961 21.9923C47.8822 21.1552 47.8585 20.4364 47.9252 19.8362C47.7096 18.7019 47.5633 18.0517 47.4865 17.8855C47.4014 17.6757 47.173 17.4253 46.8013 17.1344C46.6019 17.0367 46.3371 16.9514 46.0069 16.8786C45.7202 16.7975 45.4242 16.786 45.1189 16.844C44.8135 16.9021 44.4156 17.0681 43.9253 17.3421C43.4703 17.5643 43.0891 17.8175 42.7816 18.102C42.5094 18.3346 42.1645 18.4227 41.747 18.3665C41.3731 18.302 41.1655 18.1607 41.124 17.9426C41.0079 17.3318 40.7108 17.4335 40.2328 18.2476C39.7901 19.0098 39.2008 20.0711 38.465 21.4314C37.8291 22.3659 37.3063 23.3015 36.8968 24.2382C36.5226 25.123 36.3521 25.6526 36.3853 25.8271C36.4185 26.0016 36.3945 26.2322 36.3134 26.5188C36.2323 26.8054 36.1595 27.1357 36.0949 27.5096C35.9349 27.8564 35.7685 28.4079 35.5958 29.1639C35.4232 29.92 35.2505 30.676 35.0779 31.432C34.9405 32.1362 34.8614 32.671 34.8405 33.0366C34.8737 33.2111 34.9649 33.691 35.1142 34.4762C35.2552 35.2178 35.3879 35.9158 35.5123 36.5702C35.6533 37.3118 35.7788 37.853 35.8888 38.1937C35.9988 38.5344 36.1181 38.8055 36.2469 39.007C36.4192 39.2003 36.6559 39.4943 36.957 39.889C37.1895 40.1612 37.5218 40.4823 37.9537 40.8522C38.421 41.1701 38.7366 41.4039 38.9007 41.5535C39.4635 41.8986 39.802 42.015 39.9163 41.9029C40.0659 41.7388 40.5386 41.4907 41.3343 41.1587Z" fill="#FFACD4"/>
<path d="M10.4552 53.1996C10.2641 53.1455 9.9131 52.9637 9.40221 52.654C8.93494 52.336 8.45938 51.9744 7.97552 51.5692C7.48337 51.1204 7.14698 50.7775 6.96634 50.5406C6.794 50.3474 6.71935 49.9548 6.7424 49.3628C6.80907 48.7625 6.92966 48.4458 7.10415 48.4126C7.25162 48.4749 7.39709 48.2891 7.54056 47.855C7.68403 47.4209 7.82336 46.965 7.95854 46.4873C8.08543 45.9659 8.14058 45.6617 8.12399 45.5744C8.13444 45.3916 8.21861 45.24 8.37652 45.1196C8.56976 44.9472 8.74119 44.779 8.89081 44.615C9.04257 44.2245 9.25978 43.8216 9.54242 43.4063C9.86039 42.939 10.1036 42.5538 10.2719 42.2505C10.538 41.7479 11.0461 40.9733 11.7963 39.9266C12.5466 38.88 13.2708 37.8157 13.9691 36.7337C14.6945 35.5561 15.3357 34.5302 15.8926 33.6559C16.4413 32.7379 16.7085 32.1221 16.694 31.8085C16.694 31.8085 16.747 31.7306 16.853 31.5748C16.9943 31.3671 17.1616 31.1771 17.3549 31.0048C17.5481 30.8325 17.7902 30.5604 18.0811 30.1887C18.4157 29.8087 18.689 29.4629 18.9009 29.1514C18.9218 28.7858 19.0435 28.3559 19.2659 27.8616C19.5237 27.3153 19.8292 26.7826 20.1825 26.2635C20.432 25.6736 20.6513 25.0443 20.8406 24.3755C21.0216 23.6631 21.1266 23.1459 21.1558 22.8239C21.1955 22.3192 21.0979 22.0439 20.8632 21.9981C20.6202 21.9087 19.9898 21.8026 18.972 21.6797C17.8587 21.5297 16.8647 21.6509 15.99 22.0432C15.1154 22.4355 14.0183 23.3221 12.6988 24.703C12.113 24.95 11.579 25.2323 11.097 25.55C10.6586 25.8593 10.2608 26.0254 9.90348 26.0481C9.71239 25.994 9.47876 25.8351 9.20258 25.5712C8.9264 25.3073 8.63255 25.0693 8.32104 24.8573L7.1317 22.168L8.94873 20.6699C10.5217 19.1956 12.0613 18.0214 13.5676 17.1474C15.1092 16.2215 16.528 15.8387 17.8242 15.9991C18.304 15.9079 18.7527 15.8904 19.1702 15.9466C19.5794 15.9592 19.784 15.9655 19.784 15.9655C20.1247 15.8555 20.6596 15.9347 21.3886 16.2029C22.1613 16.4628 22.9328 16.8359 23.7033 17.3222C24.5174 17.8003 25.1134 18.3198 25.4913 18.8807C26.3883 19.795 26.8906 21.0104 26.9981 22.5268C27.1056 24.0432 26.7675 25.7121 25.9838 27.5336C25.8154 27.8368 25.4392 28.4733 24.8552 29.4432C24.2712 30.413 23.5988 31.5127 22.8381 32.7422C22.1128 33.9197 21.4321 34.9757 20.7962 35.9103C20.2039 36.8365 19.8194 37.4294 19.6427 37.689C19.3623 37.8779 18.9176 38.3919 18.3086 39.2309C17.7434 40.0616 17.1292 40.992 16.4663 42.0221C15.8386 43.0002 15.3034 43.8704 14.8607 44.6326C14.4533 45.3429 14.2933 45.6897 14.3805 45.6731C14.3701 45.8559 14.5882 45.8144 15.0349 45.5487C15.5169 45.231 15.9418 44.9695 16.3095 44.7639C16.9224 44.4214 17.6485 44.0799 18.4878 43.7396C19.3625 43.3473 20.2454 42.9986 21.1367 42.6935C22.0279 42.3885 22.7965 42.1519 23.4426 41.9839C24.1323 41.8076 24.555 41.7724 24.7108 41.8784C24.8395 42.0799 24.9215 42.1547 24.9569 42.1028C25.0275 41.999 25.0628 41.9471 25.0628 41.9471C25.092 41.6251 25.6208 41.4342 26.649 41.3743C27.7209 41.3061 28.6961 41.3241 29.5747 41.4282C30.0795 41.4679 30.4835 41.5719 30.7867 41.7402C31.1335 41.9003 31.3235 42.0676 31.3567 42.2421C31.3567 42.2421 31.4211 42.3428 31.5498 42.5444C31.7138 42.694 31.9558 42.8966 32.2756 43.1522C33.0814 43.5866 33.1975 44.1974 32.6239 44.9844C32.094 45.7632 30.9275 46.1658 29.1245 46.1922C27.9902 46.4078 27.0647 46.6516 26.348 46.9235C26.1901 47.0439 25.8276 47.158 25.2605 47.2658C24.6933 47.3737 24.1522 47.4992 23.637 47.6423C22.8352 47.7044 22.0582 47.8973 21.3062 48.2211C20.5458 48.5012 19.6535 48.9195 18.6292 49.4758C18.2615 49.6814 17.6881 49.9938 16.909 50.4131C16.1299 50.8325 15.2854 51.2642 14.3754 51.7085C13.4654 52.1527 12.6302 52.5149 11.8699 52.795C11.1532 53.0669 10.6816 53.2018 10.4552 53.1996Z" fill="#FFACD4"/>
</svg>
