<svg width="192" height="125" viewBox="0 0 192 125" fill="none" xmlns="http://www.w3.org/2000/svg">
<path d="M4.30517 99.4387C2.8212 98.3472 1.87848 97.1642 1.47702 95.8898C1.07556 94.6157 1.01003 93.2635 1.28042 91.8338C1.63083 90.4147 2.10655 88.9716 2.70758 87.504C3.68616 85.0282 4.64657 82.9978 5.58883 81.4126C6.62167 79.758 7.61978 78.0581 8.58319 76.3128C9.6372 74.4984 10.6399 72.1476 11.5914 69.2611C13.2629 66.4697 14.7533 63.8174 16.0626 61.3037C17.4518 58.8007 18.5375 56.7461 19.3197 55.1398C20.1019 53.5334 20.493 52.7304 20.493 52.7304C20.6154 52.4208 21.0465 51.623 21.7864 50.3366C22.6063 49.061 23.5833 47.5212 24.7174 45.7171C25.9419 43.8437 27.1265 41.965 28.2711 40.081C30.139 36.42 31.8476 33.3485 33.397 30.8666C34.9568 28.3049 36.4796 26.023 37.9654 24.0211C39.5312 22.03 41.1771 20.0494 42.9029 18.0793C44.0852 16.5259 45.5777 15.7055 47.3804 15.6181C49.183 15.5308 50.8368 15.9529 52.3419 16.8846C53.8577 17.7362 54.7498 18.9939 55.0184 20.6577C55.3126 21.5108 55.5111 22.4732 55.6136 23.5452C55.7962 24.6276 55.8701 26.225 55.8351 28.337C55.8908 30.3799 55.7048 33.3269 55.2771 37.1782C54.8343 41.7602 54.3591 45.9718 53.8512 49.8125C53.4341 53.5838 53.1341 57.0854 52.9512 60.318C52.848 63.5609 52.9822 66.5501 53.3532 69.2858C53.4029 70.758 53.4104 72.5501 53.3753 74.6621C53.3511 76.6942 53.3266 78.7262 53.3024 80.7586C53.358 82.8012 53.456 84.5239 53.5961 85.9265C53.7471 87.2489 53.9825 87.9314 54.3024 87.9737C54.7025 88.0265 55.1849 87.7646 55.7496 87.1879C56.4051 86.5418 57.3209 85.1568 58.4972 83.0328C59.6734 80.9086 61.2485 77.616 63.2223 73.1549C65.1958 68.6938 67.6611 62.6693 70.6181 55.0817C71.198 53.7744 72.0089 51.6427 73.051 48.6866C74.173 45.7411 75.1004 42.7294 75.8328 39.6511C76.6572 37.7246 77.5083 35.5982 78.3857 33.2719C79.2632 30.9454 80.0235 28.8886 80.6669 27.101C81.3903 25.3241 81.7678 24.3156 81.7995 24.0756C81.8737 23.5154 81.937 23.0354 81.9898 22.6353C82.1228 22.2458 82.1756 21.8457 82.1485 21.4351C82.5485 21.4879 82.9774 21.0154 83.4351 20.0175C83.9031 18.9396 84.1901 18.0006 84.2957 17.2004C84.4757 15.8402 84.7784 14.7811 85.2044 14.0233C85.7206 13.196 86.2054 12.6087 86.6583 12.2615C87.7501 10.7775 88.976 10.1255 90.3363 10.3053C91.7871 10.4156 93.0545 10.9902 94.1384 12.029C95.233 12.9878 95.8208 14.0832 95.9021 15.3152C95.9458 16.2165 95.4416 18.1852 94.3889 21.2212C93.4268 24.1877 92.0019 28.1923 90.1143 33.2345C89.9979 34.1148 89.5676 35.5234 88.8231 37.4602C88.0784 39.3972 87.278 41.449 86.4219 43.6152C85.6455 45.7922 85.0316 47.665 84.5801 49.2336C83.9852 51.2717 83.366 53.1845 82.7225 54.972C82.0897 56.6794 81.5787 57.4668 81.1892 57.3338C77.9137 66.1006 74.6924 73.5312 71.5258 79.6258C68.45 85.651 65.7673 90.5474 63.4781 94.3157C60.9761 98.4626 58.1254 100.935 54.9262 101.734C51.7964 102.623 49.1679 101.257 47.0412 97.6382C45.7959 95.357 44.7852 93.1474 44.0096 91.0094C43.2336 88.8715 42.7056 86.4 42.4251 83.5949C42.1445 80.7898 42.0392 77.275 42.109 73.0507C42.0732 69.6266 42.0668 66.2878 42.0898 63.0343C42.2033 59.7113 42.4023 56.359 42.6864 52.9771C42.9812 49.5154 43.4223 45.8693 44.01 42.0391C44.6928 37.489 44.8472 34.782 44.4728 33.9182C44.1785 33.0653 43.5202 33.426 42.4981 35.0006C41.4757 36.575 40.254 38.7338 38.8332 41.477C38.0616 43.0032 37.1381 44.7538 36.0629 46.7285C35.0784 48.6336 34.0539 50.5334 32.9892 52.4282C31.9246 54.3228 31.0172 55.9531 30.2667 57.3194C29.5162 58.6858 29.0345 59.5584 28.8216 59.9371C28.2147 60.834 27.4853 62.0402 26.6336 63.5558C25.7926 64.9915 25.0556 66.563 24.4229 68.2706C20.5481 75.4114 17.5309 81.607 15.3714 86.8577C13.3026 92.039 11.8317 95.4674 10.9589 97.1431C9.86258 99.2779 8.92262 100.538 8.13902 100.923C7.43544 101.318 6.15749 100.824 4.30517 99.4387ZM103.419 99.7171C100.839 100.76 98.1723 101.222 95.42 101.102C92.7584 100.913 90.3255 100.225 88.1213 99.0384C85.928 97.7714 84.2326 96.1226 83.0355 94.092C82.3729 92.946 81.8295 91.2053 81.4057 88.8696C80.9921 86.454 81.2847 83.3174 82.2829 79.4602C83.2496 75.8429 84.8617 72.2702 87.1191 68.7422C89.4565 65.2246 92.1358 62.2001 95.1572 59.6686C98.1785 57.137 101.318 55.5574 104.576 54.9298C105.749 54.6778 106.907 54.5458 108.048 54.5338C109.28 54.4524 110.845 54.6187 112.745 55.0325C114.553 55.5158 116.13 56.2128 117.475 57.1231C118.831 57.9538 119.776 58.8113 120.31 59.6962C121.421 61.1455 122.098 62.497 122.339 63.75C122.581 65.003 122.587 66.1846 122.359 67.2941C121.621 69.8018 120.095 72.409 117.784 75.1157C115.552 77.833 112.661 79.6898 109.11 80.6858C107.675 81.066 106.027 81.2146 104.166 81.1315C102.304 81.0482 99.8156 80.4749 96.6997 79.4117C94.832 78.7579 93.5254 78.7886 92.7795 79.5043C92.1137 80.2303 91.6673 81.7589 91.4405 84.09C91.4103 85.5514 91.561 86.874 91.8932 88.0577C92.3158 89.1718 93.2208 90.0242 94.608 90.6146C96.4061 91.1779 97.7211 91.3925 98.5532 91.2583C99.3956 91.044 100.454 90.7361 101.728 90.3346C102.421 90.0192 103.08 89.6585 103.703 89.2524C104.407 88.8569 105.07 88.4561 105.694 88.05C106.397 87.6545 106.965 87.3631 107.397 87.1762C107.839 86.9088 108.266 86.7617 108.676 86.7346C109.087 86.7074 109.492 86.7204 109.892 86.7732C110.762 86.9695 111.539 87.5606 112.223 88.5466C112.906 89.5325 113.316 90.4416 113.45 91.2734C113.365 91.9135 112.843 92.7809 111.885 93.8753C110.936 94.8898 109.698 95.9472 108.168 97.0476C106.729 98.0786 105.146 98.9686 103.419 99.7171ZM105.397 72.7457C105.988 72.5796 106.862 72.1253 108.019 71.3825C109.256 70.6505 110.377 69.8626 111.385 69.0187C112.402 68.0947 112.948 67.3529 113.022 66.7927C113.138 65.9126 112.639 65.0731 111.523 64.2744C110.487 63.486 109.023 63.1704 107.13 63.3271C106.469 63.4027 105.65 63.7423 104.675 64.3462C103.699 64.9498 102.708 65.6736 101.701 66.5174C100.705 67.2814 99.8283 68.0611 99.0718 68.8567C98.3259 69.5722 97.8013 70.1542 97.4977 70.6025C97.7648 71.0448 98.3626 71.4494 99.2912 71.8164C100.219 72.1834 101.244 72.4409 102.364 72.589C103.564 72.7476 104.575 72.7999 105.397 72.7457ZM128.901 101.864C127.7 101.706 126.617 100.667 125.649 98.7478C124.692 96.7486 124.028 94.3812 123.657 91.6457C123.366 88.9205 123.469 86.2882 123.968 83.749C124.306 81.1884 124.696 79.1638 125.137 77.6753C125.669 76.1172 126.195 74.5992 126.716 73.1213C127.02 72.673 127.192 72.2887 127.235 71.9686C127.357 71.6592 127.506 71.1497 127.681 70.44C127.936 69.7411 128.375 68.5778 128.997 66.9504C129.497 65.6323 129.965 64.5545 130.401 63.7166C130.918 62.8894 131.317 62.3316 131.6 62.0431C132.729 60.8899 133.91 60.2724 135.142 60.191C136.384 60.0298 137.449 60.2926 138.335 60.9794C139.301 61.6771 139.79 62.5966 139.802 63.738C140.229 64.2014 140.348 65.1535 140.157 66.5938C140.057 67.9646 139.787 69.3943 139.346 70.8828C138.916 72.2914 138.418 73.284 137.853 73.8607C137.641 74.2397 137.303 75.2534 136.841 76.902C136.459 78.5611 136.026 80.2951 135.543 82.1038C135.139 83.923 134.744 85.3766 134.355 86.4653C133.925 87.8738 133.883 88.8046 134.231 89.2574C134.668 89.641 135.516 89.3868 136.774 88.4945C138.122 87.533 139.942 85.7789 142.232 83.2322C144.15 81.0432 145.559 79.3162 146.459 78.0511C147.439 76.7966 148.202 75.6358 148.751 74.5685C149.379 73.5115 150.073 72.2602 150.835 70.8139C151.404 69.5866 151.901 68.5939 152.327 67.836C152.833 67.0886 153.267 66.5762 153.63 66.2986C154.679 65.1346 155.908 64.7678 157.316 65.1982C158.815 65.5591 160.003 66.1234 160.879 66.8904C161.712 67.9774 162.097 69.3718 162.035 71.0731C162.064 72.7051 161.471 74.418 160.257 76.2115C159.448 77.407 158.607 78.8429 157.734 80.5186C156.941 82.2048 156.228 83.9016 155.595 85.6092C155.043 87.3271 154.682 88.8264 154.513 90.1066C154.301 91.7069 154.374 92.6935 154.732 93.0665C155.18 93.3701 155.725 93.564 156.365 93.6487C157.325 93.7757 158.287 93.5772 159.252 93.0533C160.227 92.4497 161.672 91.3786 163.585 89.8404C164.4 89.2154 165.423 88.2516 166.653 86.9486C167.884 85.6459 169.085 84.2578 170.257 82.7844C171.509 81.3216 172.534 80.0323 173.333 78.9168C174.222 77.7317 174.688 76.979 174.73 76.6591C174.794 76.1789 175.244 75.5465 176.08 74.7614C176.645 74.1847 177.068 73.7522 177.351 73.464C177.724 73.1062 178.337 72.7802 179.19 72.4858C179.872 72.2503 180.598 72.3055 181.366 72.6514C182.145 72.9173 182.772 73.4071 183.248 74.1214C183.606 74.4943 183.78 75.3314 183.771 76.633C183.852 77.8649 183.829 78.961 183.702 79.921C183.346 80.7696 182.822 81.9622 182.13 83.4991C181.449 84.9559 180.733 86.3674 179.983 87.7337C179.323 89.0304 178.761 89.8925 178.298 90.3197C177.936 90.5974 177.296 91.1234 176.38 91.8979C175.474 92.5922 174.637 93.3773 173.87 94.2528C171.553 96.389 169.906 97.759 168.931 98.3626C167.955 98.9664 167.105 99.546 166.38 100.102C164.478 101.56 162.378 102.666 160.08 103.421C157.793 104.095 155.678 104.386 153.737 104.292C151.806 104.118 150.333 103.557 149.318 102.609C147.007 101.001 146.053 98.6765 146.454 95.6359C146.539 94.9958 146.493 94.4198 146.317 93.9082C146.23 93.3269 146.187 93.0362 146.187 93.0362C145.868 92.9938 145.417 93.0156 144.835 93.1018C144.334 93.1982 143.74 93.6895 143.053 94.5758C142.153 95.8409 140.728 97.0771 138.777 98.2848C136.917 99.4229 135.043 100.356 133.156 101.083C131.279 101.731 129.861 101.991 128.901 101.864Z" fill="white"/>
</svg>
