<svg xmlns="http://www.w3.org/2000/svg" width="600" height="620" fill="none"><g clip-path="url(#a)"><path fill="#fff" stroke="#000" stroke-width="2.515" d="m505.687 381.477.044.066.038.071 50.521 95.677c.736 1.396.024 3.173-1.423 3.548l-296.57 76.87c-1.239.321-2.468-.546-2.695-1.901l-6.432-38.294-5.947-19.952c-.016-.051-.034-.073-.049-.085a.16.16 0 0 0-.086-.039.16.16 0 0 0-.092.008c-.018.007-.042.022-.071.064-1.494 2.191-4.631 1.698-5.47-.86l-15.792-48.17-.028-.084-.018-.087-29.662-136.986a8 8 0 0 1-.173-1.323l-.589-12.637c-1.308 1.732-3.882 1.448-4.793-.625l-7.827-17.813a15.3 15.3 0 0 1-1.23-4.845l-1.897-22.106a11.3 11.3 0 0 0-.722-3.118l-6.017-15.461c-.05-.129-.209-.155-.293-.048-1.852 2.357-5.4 1.046-5.52-2.041l-.364-9.376c-1.659 1.197-3.968.167-4.297-2.034l-2.806-18.803a.84.84 0 0 0-.482-.653l-9.058-3.927c-7.468-3.237-13.002-10.213-14.842-18.707-4.015-18.544 10.582-35.685 27.961-32.831l7.049 1.158c1.216.2 2.453-.197 3.376-1.084l6.829-6.555 7.748-8.081c12.043-12.559 26.161-22.543 41.606-29.424 19.951-8.887 41.583-12.359 63.008-10.112l12.871 1.35c1.82.191 3.623-.53 4.898-1.958l6.89-7.72c8.448-9.466 21.748-11.464 32.186-4.835 2.784 1.768 5.24 4.08 7.246 6.82l2.765 3.775c4.569 6.24 6.03 14.521 3.914 22.181-1.229 4.443-3.594 8.423-6.821 11.476l-5.194 4.912c-.493.467-.498 1.296-.009 1.764l13.759 13.185c2.885 2.765 1.681 7.921-2.076 8.895-1.413.366-1.871 2.301-.792 3.349l15.117 14.686.002.002a58.7 58.7 0 0 1 7.966 9.641l.555.838.002.003 5.107 7.752.056.085.046.093 1.697 3.46c1.321 2.695-.073 6.027-2.818 6.739-1.038.269-1.388 1.678-.615 2.469l22.316 22.786a20.3 20.3 0 0 1 2.474 3.082l31.176 47.643c1.17 1.788.032 4.041-1.689 4.325l19.204 21.67.031.034.028.037 21.555 27.416.045.057.039.061 11.443 17.661.05.078.042.082 4.724 9.502.038.078.031.082 2.587 6.949c.897 2.408-.825 5.022-3.221 4.889-.262-.015-.424.305-.271.536z"/><path stroke="#000" stroke-linecap="round" stroke-width="2.515" d="M267.712 209.047c-2.259 2.937-5.605 4.631-9.125 4.62l-7.022-.022"/><path fill="#000" d="M231.403 150.459a4.44 4.44 0 0 0-1.704 2.032 4.86 4.86 0 0 0-.269 2.91l.03.141a5.1 5.1 0 0 0 1.061 2.183l.485.577a7.5 7.5 0 0 0 1.564 1.403l1.769 1.18a7.26 7.26 0 0 0 3.357 1.203l.978.092c2.997.283 5.713 2.005 7.406 4.693l.486.772c.275.436.493.91.65 1.409a9.5 9.5 0 0 1-.175-2.1l.053-1.909c.059-2.114 1.192-4.02 2.934-4.958l2.702-1.818a9.2 9.2 0 0 0 2.823-3.074 9.85 9.85 0 0 0 1.261-4.2l.069-1.021a6.5 6.5 0 0 0-.889-3.763c-.722-1.209-1.816-2.1-3.089-2.518l-.08-.026a5.45 5.45 0 0 0-3.067-.097l-.28.073c-.6.155-1.18.397-1.722.718l-2.635 1.562-.021.012-.021.012-1.745.982a14.8 14.8 0 0 1-5.673 1.828l-4.036.743c-.65.12-1.275.365-1.847.724zm10.349 33.765-.14.119a15.6 15.6 0 0 1-4.995 2.839l-1.273.436a18 18 0 0 1-2.003.556q.434.404.782.912l.748 1.097.056.08.048.086 1.229 2.157.025.044.024.045 2.558 4.962 1.666 2.442a14.5 14.5 0 0 0 3.291 3.454l.068.051a13 13 0 0 0 3.348 1.818q1.047.382 2.138.572l.462.081a17.7 17.7 0 0 0 5.427.105l.663-.09a22.4 22.4 0 0 0 5.273-1.386l1.02-.406a16.2 16.2 0 0 0 3.551-1.964l1.917-1.399a6.2 6.2 0 0 0 1.725-1.943 6.7 6.7 0 0 0 .542-1.226l.466-1.425a22 22 0 0 0 1.077-7.359l-.051-2.134a13.7 13.7 0 0 0-.305-2.568 18.9 18.9 0 0 1-.378-5.358l.421-5.858-.101.06-1.508.978a20 20 0 0 1-3.832 1.939 19 19 0 0 1-3.978 1.031l-.374.056a16.6 16.6 0 0 1-3.44.147l-.974-.06a10.7 10.7 0 0 1-3.306-.745l-.603-.242c-1.605-.642-3.01-1.759-4.056-3.225l-.238-.333c-.587-.821-1.118-1.921-1.312-2.719s.118 1.085.072 1.63l-.172 2.04a15.7 15.7 0 0 1-.5 2.816 15.2 15.2 0 0 1-1.953 4.335l-.128.195a15.5 15.5 0 0 1-2.977 3.357"/><path stroke="#000" stroke-width="3.772" d="m252.825 143.667.08.026c1.273.418 2.367 1.309 3.089 2.518a6.5 6.5 0 0 1 .889 3.763l-.069 1.021a9.85 9.85 0 0 1-1.261 4.2 9.2 9.2 0 0 1-2.823 3.074l-2.702 1.818c-1.742.938-2.875 2.844-2.934 4.958l-.053 1.909c-.02.71.04 1.415.175 2.1a6 6 0 0 0-.65-1.409l-.486-.772c-1.693-2.688-4.409-4.41-7.406-4.693l-.978-.092a7.26 7.26 0 0 1-3.357-1.203l-1.769-1.18a7.5 7.5 0 0 1-1.564-1.403l-.485-.577a5.1 5.1 0 0 1-1.061-2.183l-.03-.141a4.86 4.86 0 0 1 .269-2.91 4.44 4.44 0 0 1 1.704-2.032l.375-.235a5.3 5.3 0 0 1 1.847-.724l4.036-.743a14.8 14.8 0 0 0 5.673-1.828l1.745-.982.021-.012.021-.012 2.635-1.562a6.6 6.6 0 0 1 1.722-.718l.28-.073a5.45 5.45 0 0 1 3.067.097Zm0 0 .639-.532m-9.696 60.318a14.5 14.5 0 0 1-3.291-3.454l-1.666-2.442-2.558-4.962-.024-.045-.025-.044-1.229-2.157-.048-.086-.056-.08-.748-1.097a5.4 5.4 0 0 0-.782-.912 18 18 0 0 0 2.003-.556l1.273-.436a15.6 15.6 0 0 0 4.995-2.839l.14-.119a15.5 15.5 0 0 0 2.977-3.357l.128-.195a15.2 15.2 0 0 0 1.953-4.335c.252-.919.419-1.863.5-2.816l.172-2.04c.046-.545-.266-2.427-.072-1.63s.725 1.898 1.312 2.719l.238.333c1.046 1.466 2.451 2.583 4.056 3.225l.603.242a10.7 10.7 0 0 0 3.306.745l.974.06c1.148.07 2.3.021 3.44-.147l.374-.056a19 19 0 0 0 3.978-1.031 20 20 0 0 0 3.832-1.939l1.508-.978.101-.06-.421 5.858a18.9 18.9 0 0 0 .378 5.358c.182.842.284 1.703.305 2.568l.051 2.134a22 22 0 0 1-1.077 7.359l-.466 1.425a6.7 6.7 0 0 1-.542 1.226 6.2 6.2 0 0 1-1.725 1.943l-1.917 1.399a16.2 16.2 0 0 1-3.551 1.964l-1.02.406a22.4 22.4 0 0 1-5.273 1.386l-.663.09a17.7 17.7 0 0 1-5.427-.105l-.462-.081a12.5 12.5 0 0 1-2.138-.572 13 13 0 0 1-3.348-1.818zm0 0-.559.052"/><path stroke="#000" stroke-linecap="round" stroke-width="2.515" d="m343.324 106.116.287-3.386q.034-.41.001-.821l-.153-1.868c-.146-1.782-1.715-3.004-3.323-2.587a2.6 2.6 0 0 0-1.019.524l-2.38 1.967q-.07.057-.129.127c-.635.738-1.772.259-1.776-.748L334.825 97a2.2 2.2 0 0 0-.05-.457l-.055-.254c-.305-1.409-1.239-2.556-2.491-3.056l-.394-.158a4.43 4.43 0 0 0-2.766-.178l-.906.235c-1.545.4-2.946 1.3-4.015 2.58l-3.199 3.828M168.39 177.863l-3.804-1.675a4.37 4.37 0 0 0-4.066.282l-.283.172q-.098.06-.185.138l-.211.192c-.671.609-1.692.138-1.749-.806a1.3 1.3 0 0 0-.064-.327l-.123-.358c-.516-1.506-1.855-2.489-3.339-2.451l-.173.004-.361.01a9.3 9.3 0 0 0-4.328 1.206l-2.038 1.147"/><path fill="#000" d="M212.784 153.871c-2.65 1.192-5.995-.996-7.471-4.888s-.524-8.013 2.126-9.205 5.995.996 7.471 4.888.524 8.013-2.126 9.205M275.294 130.422c-2.353 1.783-6.058.431-8.275-3.02s-2.107-7.693.246-9.476 6.058-.431 8.275 3.02 2.107 7.693-.246 9.476"/><g filter="url(#b)" opacity=".1"><path fill="#FE00B0" d="M207.403 176.826c-5.777 1.498-10.99.263-11.644-2.757s3.499-6.683 9.276-8.18 10.99-.263 11.644 2.757-3.499 6.683-9.276 8.18"/></g><g filter="url(#c)" opacity=".1"><path fill="#FE00B0" d="M289.689 149.766c-5.148 3.048-10.409 3.346-11.751.665s1.744-7.324 6.892-10.372 10.409-3.346 11.75-.665c1.342 2.681-1.743 7.325-6.891 10.372"/></g><path fill="#fff" d="m225.543 323.94 4.96 5.315 74.66 107.299-61.47 20.471-7.632-7.098-14.716-8.149-33.232-14.489-20.634-9.09-18.279-10.527-11.363-10.256-7.948-10.316.908 5.953-2.587-1.392-9.898-12.286-6.528-9.034-8.709-13.832-6.06-10.393-6.256-2.504-.868-2.25 4.965-1.7-6.933-5.629-4.768-6.189-3.918-9.298-1.946-8.985-3.962-5.986 3.562 2.377-.339-1.562.344-5.452-.593-2.735-3.223-.814-.592-2.734.681-3.89 2.779.517-.615-1.078-1.82-4.891-1.737-4.5-.124-4.094 1.064-5.639.958-4.373 2.124-4.264 3.077-1.623 5.005 2.004-1.229-2.157-2.097-4.407.321-3.796 2.4-4.748 5.05-1.309 4.391.925-1.037-3.031.236-4.187 2.04-4.654 4.88-2.09 5.918.941 5.237 4.831-1.461-4.985 1.764-4.17 5.664-.23 7.356 7.582-.592-2.735 1.296-2.811 4.328-1.122 10.985 4.991 8.816 12.567 3.354-2.107 1.557 17.748 4.898 3.269-4.221-.144 9.982 12.677-5.748-.16 1.059 1.375 8.5 9.348 9.921 10.63 5.129 6.096 24.428 14.296 1.043-3.983 16.283 11.868z"/><path fill="#000" d="M231.547 328.109c.581.622.585 1.639.008 2.272s-1.515.641-2.096.018zm-54.099-29.245 1.044-1.146.027.03.026.03zm-9.92-10.63-1.045 1.145-.007-.007-.006-.008zm-94.812-19.155-1.451-.315.004-.025.006-.024zm.797 14.232 1.367-.625.004.009.003.009zm29.562 73.196-1.225.91-.014-.023-.014-.024zm8.71 13.832-1.169.994-.029-.041-.028-.043zm6.527 9.034-1.118 1.061-.026-.032-.024-.034zm49.167 38.824-.563 1.489-.07-.031-.067-.038zm20.635 9.091-.559 1.491-.004-.002zm33.231 14.489.559-1.491.061.026.059.034zm-4.279-118.267c-.666-.513-.819-1.516-.342-2.24.476-.723 1.402-.894 2.067-.381zm-2.941-5.056c.639.55.743 1.56.232 2.256s-1.444.813-2.083.262zm15.334 11.945-4.94-5.293 2.089-2.29 4.939 5.293zm-26.481-11.671-18.201-10.652 1.418-2.829 18.2 10.651zM179.254 303.4l-2.902-3.45 2.193-2.172 2.903 3.451zm-2.85-3.391-9.921-10.63 2.089-2.291 9.92 10.63zm-9.934-10.645-8.501-9.348 2.116-2.261 8.501 9.348zm-6.801-13.414 4.048.113-.09 3.212-4.048-.112zm2.889 2.73-7.251-9.209 2.257-2.092 7.253 9.208zm-5.429-12.203-.225-.151 1.562-2.738.225.15zm-6.063-10.323-1.037-11.818 2.951-.319 1.037 11.818zm-6.405-12.236-5.28-7.525 2.362-1.953 5.28 7.526zm-16.06-13.664-.432.112-.676-3.125.431-.112zm-2.907 2.243-.137.297-2.65-1.426.137-.297zm-5.454 1.895-3.804-3.921 2.047-2.333 3.805 3.92zm-6.311-4.947-.99.041-.098-3.211.99-.04zm-3.374 1.77-.437 1.034-2.694-1.328.438-1.033zm-4.926 4.73-2.784-1.995 1.642-2.683 2.784 1.995zm-3.211-2.184-1.69-.356.578-3.154 1.69.355zm-8.421 3.339-.073.167-2.676-1.369.072-.166zm-.698 2.792-.122 2.157-2.958-.182.121-2.157zm-3.492 6.464-1.296-.273.578-3.154 1.296.272zm-1.614-.266-1.273.33-.677-3.125 1.273-.33zm-5.254 3.626-.058.117-2.598-1.535.059-.117zm-.13 5.771 1.086 2.279-2.636 1.485-1.085-2.281zm-1.959 6.674-1.978-.417.578-3.154 1.978.416zm-2.322-.432-.27.033-.313-3.194.27-.032zm-2.53 1.685-.594 1.194-2.606-1.518.594-1.193zm-1.09 2.602-.75 3.428-2.883-.729.75-3.427zm-.74 3.378-.767 4.066-2.904-.631.768-4.065zm-.139 11.086.851 2.206-2.735 1.251-.851-2.206zm.858 2.224 1.803 4.844-2.75 1.214-1.802-4.843zm-.193 8.072-3.524-.333.271-3.2 3.523.332zm-1.964-2.283.017.082-2.885.748-.018-.082zm1.915 3.986.582.692-2.194 2.172-.582-.692zm3.538 5.367.156.716-2.886.748-.155-.716zm.156.716.946 4.371-2.886.748-.946-4.371zm-3.357 8.225-3.978-1.934 1.224-2.933 3.977 1.934zm-2.383-4.461 1.206 1.279-2.079 2.302-1.205-1.28zm8.887 17.684 1.36 3.227-2.696 1.347-1.36-3.228zm5.363 10.115 1.902 2.469-2.278 2.066-1.903-2.469zm2.356 2.935 3.886 3.156-1.783 2.576-3.887-3.156zm2.915 9.22-.245.084-.88-3.064.245-.084zm-.245.062 2.92 1.169-1.037 3.014-2.92-1.168zm7.953 5.584 4.501 7.718-2.507 1.726-4.5-7.719zm4.473 7.671 8.709 13.832-2.451 1.82-8.709-13.832zm8.652 13.748 6.527 9.034-2.336 1.989-6.528-9.035zm6.477 8.969 9.725 12.07-2.237 2.12-9.724-12.07zm9.681 12.033.619.333-1.327 2.88-.62-.333zm4.242-1.265 5.434 7.053-2.279 2.067-5.434-7.053zm5.663 7.302 5.079 4.584-1.902 2.473-5.08-4.584zm17.847 13.877 11.316 6.517-1.4 2.839-11.316-6.517zm11.179 6.448 20.635 9.09-1.126 2.978-20.635-9.091zm20.63 9.088 33.232 14.489-1.117 2.982-33.232-14.489zm33.352 14.549 5.758 3.188-1.357 2.863-5.759-3.189zm-1.123-113.876-3.835-2.96 1.725-2.621 3.836 2.96zm-11.9-12.433 5.124 4.417-1.851 2.518-5.124-4.417zm-72.191-80.39-1.853-1.481 1.765-2.59 1.854 1.482zm-4.832-3.041-1.073-.315.787-3.102 1.074.315zm2.979 1.56a8.7 8.7 0 0 0-2.979-1.56l.788-3.102a11.6 11.6 0 0 1 3.956 2.072zm92.825 211.368a86 86 0 0 1 16.879 12.269l-1.935 2.443a83 83 0 0 0-16.301-11.849zm-83.687-42.566a74.8 74.8 0 0 0 12.768 9.293l-1.4 2.839a77.7 77.7 0 0 1-13.27-9.659zm-5.308-4.833q.104.136.229.249l-1.903 2.473a5 5 0 0 1-.605-.655zm-9.768-4.884c-.41-2.689 2.724-4.258 4.334-2.169l-2.279 2.067a.5.5 0 0 0 .294.178.44.44 0 0 0 .293-.037.5.5 0 0 0 .215-.218.6.6 0 0 0 .067-.359zm.711-.571c-.361-.194-.776.139-.711.571l2.924-.538c.329 2.156-1.737 3.817-3.54 2.847zm-.575-.296a.2.2 0 0 0-.044-.037l-1.328 2.88a2.9 2.9 0 0 1-.865-.723zm-34.36-46.873c2.081.832 3.85 2.383 5.033 4.415l-2.507 1.725c-.838-1.437-2.09-2.535-3.563-3.126zm-2.914-1.162q0-.005-.006-.007l-1.037 3.015c-.765-.306-1.377-.942-1.691-1.757zm-.006.015q-.003.001 0 0l.004-.003.002-.003v-.009q0-.003 0 0l-2.734 1.251c-.67-1.738.185-3.731 1.847-4.3zm1.216-6.148c2.074 1.684 1.509 5.215-.97 6.064l-.881-3.064a.2.2 0 0 0 .104-.07.286.286 0 0 0 .04-.251.22.22 0 0 0-.076-.103zm-4.34-3.622q.202.262.454.466l-1.784 2.576a5.8 5.8 0 0 1-.948-.976zm-5.905-9.357a31 31 0 0 0 4.003 6.888l-2.279 2.066a34.2 34.2 0 0 1-4.42-7.607zm-2.662-7.357c.307 1.42.744 2.803 1.302 4.13l-2.696 1.346a27 27 0 0 1-1.492-4.729zm-6.38-12.275c3.157 3.351 5.369 7.607 6.38 12.275l-2.886.747c-.883-4.077-2.814-7.794-5.572-10.72zm-2.8 1.248c1.457.708 2.735-1.317 1.595-2.527l-2.078 2.301c-1.221-1.296.147-3.465 1.707-2.707zm1.743-16.278a9 9 0 0 0 1.898 3.904l-2.194 2.172a12.3 12.3 0 0 1-2.589-5.328zm-1.577 1.868c.996.095 1.788-.897 1.56-1.95l-2.886.748c-.234-1.08.578-2.095 1.597-1.998zm5.45-3.045c.884 1.55-.25 3.537-1.926 3.378l.27-3.201c-.755-.071-1.265.823-.867 1.521zm.07.15a1 1 0 0 0-.07-.15l-2.523 1.698a2.4 2.4 0 0 1-.156-.334zm-3.509-11.287c.045 1.452.332 2.881.848 4.219l-2.735 1.251a16.2 16.2 0 0 1-1.075-5.349zm.22-2.801a13 13 0 0 0-.22 2.801l-2.962.121a16.5 16.5 0 0 1 .278-3.553zm2.003-8.852c-.221.444-.388.918-.495 1.408l-2.884-.728a9.5 9.5 0 0 1 .773-2.198zm2.855-2.846c-.957.115-1.802.733-2.26 1.652l-2.607-1.517c.923-1.852 2.626-3.097 4.553-3.329zm.613-.018a1.1 1.1 0 0 0-.344-.015l-.314-3.193c.413-.05.829-.032 1.236.054zm5.26-3.28c.466 2.153-1.279 4.119-3.282 3.697l.578-3.155c-.111-.023-.208.086-.182.206zm-.237-.698q.157.334.237.698l-2.886.748.013.039zm-1.677-5.581a6.44 6.44 0 0 0 .592 3.302l-2.636 1.483a9.9 9.9 0 0 1-.908-5.063zm.663-2.352a6.4 6.4 0 0 0-.663 2.352l-2.952-.278a9.9 9.9 0 0 1 1.017-3.609zm4.039-3.413c-1.696.44-3.142 1.638-3.98 3.296l-2.598-1.535c1.243-2.458 3.388-4.234 5.9-4.886zm1.591-.337a.7.7 0 0 0-.318.007l-.677-3.125a3.44 3.44 0 0 1 1.573-.036zm4.667-4.029c.808 2.362-1.089 4.783-3.371 4.302l.578-3.155.01.002-.006.001q-.002.002 0 0 .003-.001.008-.007l.005-.008q0-.003 0 0v.006q0 .002 0 0l-.004-.011zm0-.005v.005l-2.78 1.13a3.5 3.5 0 0 1-.179-1.317zm.746-4.782a7.6 7.6 0 0 0-.625 2.625l-2.959-.182c.075-1.32.383-2.615.908-3.812zm3.378-3.517c-1.453.622-2.635 1.82-3.305 3.35l-2.677-1.368c.995-2.27 2.75-4.047 4.904-4.97zm12.816-1.501a.01.01 0 0 0-.001.011l-2.825.986a3.5 3.5 0 0 1 .132-2.325zm2.821-2.763c-1.031.042-1.954.711-2.384 1.729l-2.693-1.327c.899-2.127 2.827-3.525 4.979-3.613zm3.497.985a3.3 3.3 0 0 0-2.507-1.026l-.098-3.21c1.727-.071 3.404.615 4.652 1.903zm9.105 2.367c-.685 2.501-3.563 3.345-5.301 1.554l2.048-2.334c.134.14.359.074.412-.12zm.016-.044-.016.044-2.841-.9a3.6 3.6 0 0 1 .207-.57zm2.612-2.428c-1.074.278-1.981 1.059-2.475 2.131l-2.65-1.426c.888-1.927 2.518-3.33 4.449-3.83zm-.245-3.237a7.05 7.05 0 0 1 3.768.06l-.787 3.102a4.3 4.3 0 0 0-2.304-.037zm11.457 9.264a13.3 13.3 0 0 0-2.571-2.746l1.766-2.589a16.3 16.3 0 0 1 3.167 3.382zm12.813 9.145c-2.539 1.594-5.765.901-7.533-1.62l2.362-1.952c.867 1.235 2.449 1.575 3.693.794zm3.113 23.933c-1.87-2.374-.237-6.039 2.648-5.941l-.106 3.211c-.31-.01-.485.383-.285.638zm8.41 6.592c-1.267-.035-1.979 1.575-1.159 2.617l2.259-2.093c.843 1.071.111 2.725-1.19 2.688zm-5.829 3.856c-1.228-1.594-.139-4.022 1.781-3.969l-.09 3.213c.634.017.993-.784.588-1.31zm-78.987 25.557c-.822 1.44-2.498 2.002-3.919 1.311l1.223-2.933c.064.031.14.006.177-.059zm105.876 2.6a21.3 21.3 0 0 1-5.523-4.676l2.194-2.171a18.3 18.3 0 0 0 4.747 4.018zm-105.492-5.143c.188.868.05 1.782-.384 2.543l-2.519-1.681a.16.16 0 0 0 .017-.114zm130.179 12.808c-.789 3.015-3.95 4.47-6.486 2.987l1.417-2.83c.867.508 1.948.01 2.218-1.021zm-59.435-71.405c.1 1.136 1.251 1.776 2.165 1.202l-1.478-2.778c.956-.601 2.159.068 2.264 1.257zm-49.301-10.931a5.7 5.7 0 0 0-3.426.345l-1.078-2.988a8.45 8.45 0 0 1 5.082-.511zm105.885 81.472c.294-1.123 1.548-1.565 2.388-.84l-1.851 2.518c.814.703 2.029.275 2.314-.814zm-49.709-48.551c-3.31-2.208-5.469-5.972-5.838-10.172l2.951-.319c.281 3.201 1.927 6.07 4.449 7.753zm-54.059-32.376a1.1 1.1 0 0 0-.427-.189l.578-3.155c.533.112 1.04.338 1.491.661zm-27.131 59.71c1.239 1.049 2.11 2.525 2.47 4.186l-2.886.748a4.33 4.33 0 0 0-1.414-2.398zm151.189 30.912c-.977 2.58-3.914 3.509-6.002 1.898l1.726-2.621c.534.412 1.285.174 1.534-.485zm-68.948-61.042c-1.504-.052-2.105 2.092-.826 2.947l1.562-2.739c1.303.87.691 3.056-.842 3.003zm-47.838-31.27c.85 2.902-2.147 5.363-4.488 3.685l1.642-2.683.017.01q.002.001 0 0h-.007l-.008-.001q-.005 0 0 0l.014-.009.012-.013q.004-.007 0 0l-.002.009-.001.008q.002.004 0 0l-.004-.02zm-34.89 60.911q.225.266.487.489l-1.83 2.536a7 7 0 0 1-.851-.853zm149.292 31.935c.74.793 1.988.513 2.384-.534l-2.742-1.208c.407-1.074 1.688-1.362 2.447-.548z"/><path fill="#000" stroke="#000" stroke-width=".503" d="m85.864 279.092-.32.147c-.435.199-.899.31-1.37.33a3.64 3.64 0 0 1-2.176-.62l-.038-.026a4.2 4.2 0 0 1-1.228-1.28l-.599-.968a10 10 0 0 1-1.058-2.339l-.307-1.001a7.24 7.24 0 0 1-.081-3.942l.11-.42a5.4 5.4 0 0 1 1.573-2.628l.14-.126a4.2 4.2 0 0 1 2.87-1.115c.93.011 1.832.341 2.575.945l.277.225a5.7 5.7 0 0 1 1.446 1.767l.55 1.036c.542 1.019.882 2.15.997 3.321l.038.392a6.7 6.7 0 0 1-.122 2.08l-.008.035a6.24 6.24 0 0 1-1.351 2.734 5.6 5.6 0 0 1-1.918 1.453ZM118.314 238.914l-1.021.161a3.18 3.18 0 0 0-1.912 1.086 3.7 3.7 0 0 0-.845 2.858l.101.838c.12.992.498 1.926 1.088 2.693l.675.875q.54.702 1.198 1.274l1.22 1.063a5.4 5.4 0 0 0 3.215 1.337l.76.047a3.4 3.4 0 0 0 2.338-.76c.784-.631 1.298-1.58 1.423-2.628l.035-.298a4.9 4.9 0 0 0-.474-2.763l-.691-1.379a9.4 9.4 0 0 0-1.702-2.381l-.25-.252a6.3 6.3 0 0 0-1.493-1.12l-.05-.027a5.72 5.72 0 0 0-3.615-.624ZM108.48 256.096l.048-.013a4.85 4.85 0 0 0 1.731-.848 5.3 5.3 0 0 0 1.385-1.595l.028-.048a6 6 0 0 0 .711-2.021l.011-.07a6.53 6.53 0 0 0-.42-3.576l-.128-.305a7.04 7.04 0 0 0-2.109-2.798l-.249-.196a5.9 5.9 0 0 0-2.471-1.152l-.4-.08a4.7 4.7 0 0 0-3.442.646l-.184.115c-.999.628-1.738 1.646-2.066 2.845a5.3 5.3 0 0 0-.068 2.499l.175.81a8.2 8.2 0 0 0 1.514 3.286l.232.302a6.05 6.05 0 0 0 1.843 1.598l.231.128a4.9 4.9 0 0 0 3.628.473ZM99.039 265.545l.102-.057a4.43 4.43 0 0 0 1.834-2.02 4.9 4.9 0 0 0 .335-3.082l-.186-.859a7.25 7.25 0 0 0-1.14-2.622l-.437-.623a8.6 8.6 0 0 0-2.261-2.222l-.448-.299a5.93 5.93 0 0 0-2.93-.996l-.613-.038a4.36 4.36 0 0 0-3.008.979l-.133.106c-.522.42-.941.973-1.22 1.609a4.6 4.6 0 0 0-.28 2.817l.106.488c.168.777.486 1.505.93 2.14l.852 1.213c.45.642.966 1.227 1.538 1.743l.776.701a5.8 5.8 0 0 0 2.747 1.396l.501.102c.998.2 2.032.033 2.935-.476ZM131.66 249.262l-1.271-1.284a9.4 9.4 0 0 1-1.209-1.505l-.224-.345a6.3 6.3 0 0 1-.635-1.284l-.089-.247a5.8 5.8 0 0 1-.135-3.475l.103-.375a4 4 0 0 1 .933-1.675 3.48 3.48 0 0 1 2.104-1.08l.542-.065a4.76 4.76 0 0 1 2.342.31l.787.315a8.6 8.6 0 0 1 3.193 2.246l.706.784a8.5 8.5 0 0 1 1.503 2.379l.495 1.174c.333.79.436 1.674.297 2.532-.177 1.089-.733 2.065-1.554 2.725l-.076.06c-.6.483-1.308.785-2.05.875l-.402.048a5.3 5.3 0 0 1-2.769-.415l-.376-.166a7.2 7.2 0 0 1-2.215-1.532Z"/><path fill="#000" d="m139.355 281.306-.923.838c-2.093 1.898-4.655 3.085-7.362 3.41l-2.531.305-1.25 1.671a39.6 39.6 0 0 1-5.089 5.597l-.346.314a33.2 33.2 0 0 1-5.567 4.09l-.353.207a27 27 0 0 1-3.604 1.759l-1.47.584a16.5 16.5 0 0 1-5.433 1.161l-.781.032a11.9 11.9 0 0 1-4.082-.549l-1.05-.334c-1.746-.553-3.3-1.655-4.464-3.167l-.208-.27a8.76 8.76 0 0 1-1.608-3.491 9.2 9.2 0 0 1 .006-3.909l.37-1.694c.36-1.638.96-3.204 1.776-4.637.466-.815.997-1.582 1.59-2.292l1.53-1.83a42.6 42.6 0 0 0 4.315-6.219l.314-.55 3.326-5.049a20.4 20.4 0 0 1 2.882-3.478l.674-.65a13.9 13.9 0 0 1 4.032-2.722 13.1 13.1 0 0 1 4.756-1.112l.395-.016a15 15 0 0 1 5.473.8l5.559 1.903 6.406 1.884c1.656.486 3.133 1.512 4.232 2.938a9.46 9.46 0 0 1 1.848 4.431l.047.333c.22 1.542.109 3.143-.314 4.638-.556 1.969-1.637 3.751-3.096 5.074"/><path stroke="#000" stroke-width=".503" d="m126.311 286.127 2.228-.268m0 0 2.531-.305c2.707-.325 5.269-1.512 7.362-3.41l.923-.838c1.459-1.323 2.54-3.105 3.096-5.074.423-1.495.534-3.096.314-4.638l-.047-.333a9.46 9.46 0 0 0-1.848-4.431c-1.099-1.426-2.576-2.452-4.232-2.938l-6.406-1.884-5.559-1.903a15 15 0 0 0-5.473-.8l-.395.016a13.1 13.1 0 0 0-4.756 1.112 13.9 13.9 0 0 0-4.032 2.722l-.674.65a20.4 20.4 0 0 0-2.882 3.478l-3.326 5.049-.314.55a42.6 42.6 0 0 1-4.316 6.219l-1.528 1.83a15.7 15.7 0 0 0-1.59 2.292 16.5 16.5 0 0 0-1.776 4.637l-.371 1.694a9.2 9.2 0 0 0-.006 3.909 8.76 8.76 0 0 0 1.608 3.491l.208.27c1.165 1.512 2.718 2.614 4.464 3.167l1.05.334a11.9 11.9 0 0 0 4.082.549l.781-.032a16.5 16.5 0 0 0 5.433-1.161l1.47-.584a27 27 0 0 0 3.604-1.759l.353-.207a33.2 33.2 0 0 0 5.567-4.09l.346-.314a39.6 39.6 0 0 0 5.089-5.597z"/><path stroke="#000" stroke-linecap="round" stroke-width="2.515" d="m393.02 369.808 7.016 18.417a85.5 85.5 0 0 1 5.059 20.96l1.32 11.842c.131 1.176.361 2.336.686 3.466l2.699 9.377c.361 1.255-1.272 1.992-1.832.827-.513-1.066-2.011-.549-1.869.646l1.524 12.787M369.629 345.009l13.666 8.369M369.29 352.116c2.867 1.279 4.85 4.161 5.165 7.508l.058.612"/><path fill="#fff" stroke="#fff" stroke-width=".377" d="m267.274 195.788-1.31.956a.9.9 0 0 1-.29.138l-.05.013a.6.6 0 0 1-.308.001c-.361-.091-.583-.481-.497-.873l.03-.141c.002-.008-.007-.014-.012-.008l-.137.123a6.8 6.8 0 0 1-1.029.77l-1.808 1.103-2.08.951-.37.17a21 21 0 0 1-3.513 1.249l-.721.187c-.2.052-.323.269-.277.484l.058.268a.7.7 0 0 1-.322.758l-.556.313a1.34 1.34 0 0 1-.782.168l-.231-.021a2.1 2.1 0 0 1-.968-.348l-.432-.288a4.2 4.2 0 0 0-.971-.481l-1.544-.529-1.96-.365a4.1 4.1 0 0 1-1.525-.623l-1.048-.7a1.44 1.44 0 0 1-.599-.901l-.007-.033a1.47 1.47 0 0 1 .156-1.037c.177-.309.459-.531.786-.616l.475-.123c.303-.079.616-.094.923-.045l1.508.24 2.06.521q.358.09.725.107l2.019.095a.52.52 0 0 0 .469-.269l.047-.081a.37.37 0 0 0 .038-.255.35.35 0 0 1 .16-.376l.871-.49a1.5 1.5 0 0 1 .577-.185l1.684-.17a8 8 0 0 0 1.228-.22 8.4 8.4 0 0 0 2.27-.964l1.282-.782 2.271-1.826 1.265-1.338q.285-.301.609-.549l.636-.486a2.4 2.4 0 0 1 1.497-.506l.155.002c.359.004.711.113 1.017.318.545.363.893.991.935 1.684l.03.491a3.35 3.35 0 0 1-.298 1.597l-.308.667a5.8 5.8 0 0 1-1.828 2.255Z"/></g><defs><filter id="b" width="41.174" height="32.329" x="185.632" y="155.193" color-interpolation-filters="sRGB" filterUnits="userSpaceOnUse"><feFlood flood-opacity="0" result="BackgroundImageFix"/><feBlend in="SourceGraphic" in2="BackgroundImageFix" result="shape"/><feGaussianBlur result="effect1_foregroundBlur_2604_1377" stdDeviation="5.029"/></filter><filter id="c" width="39.388" height="34.818" x="267.565" y="127.504" color-interpolation-filters="sRGB" filterUnits="userSpaceOnUse"><feFlood flood-opacity="0" result="BackgroundImageFix"/><feBlend in="SourceGraphic" in2="BackgroundImageFix" result="shape"/><feGaussianBlur result="effect1_foregroundBlur_2604_1377" stdDeviation="5.029"/></filter><clipPath id="a"><path fill="#fff" d="M462.043 33.36 34.98 144.052l97.099 448.432 427.063-110.694z"/></clipPath></defs></svg>