<svg width="130" height="80" viewBox="0 0 130 80" fill="none" xmlns="http://www.w3.org/2000/svg">
<path d="M16.1495 13.638C16.2742 13.2297 16.5744 12.9903 17.0502 12.9198C17.3919 12.8667 18.3236 12.8574 19.8451 12.8919C21.1633 12.9176 21.9155 12.3843 22.1016 11.2918C22.3034 10.1121 21.6079 9.24033 20.015 8.67643C19.2984 8.42349 18.6061 8.42076 17.9381 8.66826C16.9649 9.03196 16.3063 9.1449 15.9624 9.00707C15.4874 8.81886 15.2987 8.4713 15.3965 7.96439C15.5176 7.34189 15.9815 6.91787 16.7883 6.69233C18.1885 6.29834 19.3633 6.26279 20.3125 6.58567C22.2962 7.25428 23.4828 8.15484 23.8724 9.28735C24.5378 11.2096 24.177 12.7694 22.79 13.9666C22.2848 14.4024 21.5621 14.6695 20.6218 14.7679C20.8378 14.8714 21.1928 15.195 21.6868 15.7386C22.754 16.9004 22.8542 18.5303 21.9873 20.6285C21.13 22.6911 19.4981 23.6513 17.0916 23.5091C15.0684 23.3858 13.5621 22.7119 12.5727 21.4872C11.8876 20.6334 11.6277 19.8555 11.7929 19.1535C11.9487 18.4869 12.3229 18.1988 12.9156 18.2891C13.2287 18.3425 13.6271 18.9024 14.1105 19.9687C14.4546 20.731 15.3799 21.1998 16.8866 21.3751C18.7405 21.5901 19.83 20.892 20.1551 19.2808C20.536 17.4332 19.6923 16.0343 17.6241 15.0841C16.4854 14.6724 15.9939 14.1904 16.1495 13.638ZM33.1371 12.2725C30.3873 11.5356 28.4602 13.2278 27.356 17.3491C26.1908 21.6977 26.8765 24.2118 29.4132 24.8915C31.9712 25.5769 33.8471 23.692 35.0408 19.2369C36.1165 15.2222 35.482 12.9008 33.1371 12.2725ZM33.6449 10.2495C37.4606 11.2719 38.6478 14.4725 37.2065 19.8514C35.6644 25.6069 32.8895 27.9478 28.882 26.8739C24.9384 25.8173 23.7234 22.4645 25.2371 16.8156C26.7069 11.3301 29.5095 9.14139 33.6449 10.2495ZM46.0235 15.7253C43.2736 14.9885 41.3466 16.6807 40.2423 20.8019C39.0771 25.1505 39.7628 27.6647 42.2995 28.3444C44.8575 29.0298 46.7334 27.1449 47.9271 22.6897C49.0029 18.6751 48.3683 16.3536 46.0235 15.7253ZM46.5313 13.7024C50.3469 14.7248 51.5341 17.9254 50.0929 23.3043C48.5507 29.0598 45.7758 31.4006 41.7683 30.3268C37.8247 29.2701 36.6098 25.9174 38.1234 20.2684C39.5932 14.783 42.3958 12.5943 46.5313 13.7024ZM58.9098 19.1782C56.16 18.4414 54.2329 20.1336 53.1286 24.2548C51.9634 28.6034 52.6492 31.1176 55.1858 31.7973C57.7438 32.4827 59.6197 30.5978 60.8135 26.1426C61.8892 22.128 61.2546 19.8065 58.9098 19.1782ZM59.4176 17.1552C63.2333 18.1776 64.4205 21.3783 62.9792 26.7572C61.437 32.5127 58.6622 34.8535 54.6546 33.7797C50.7111 32.723 49.4961 29.3702 51.0097 23.7213C52.4795 18.2359 55.2822 16.0472 59.4176 17.1552ZM64.85 28.8578L69.9717 30.2073C70.6396 30.3863 70.9013 30.7457 70.7566 31.2858C70.6081 31.84 70.2176 32.0324 69.5852 31.8629L64.3548 30.45C63.8859 30.3244 63.7218 29.9987 63.8627 29.4728C64.0093 28.9257 64.3384 28.7207 64.85 28.8578ZM76.3605 29.7715C76.4851 29.3632 76.7853 29.1238 77.2612 29.0533C77.6029 29.0001 78.5345 28.9908 80.056 29.0254C81.3742 29.0511 82.1264 28.5177 82.3125 27.4252C82.5144 26.2456 81.8189 25.3738 80.226 24.8099C79.5093 24.557 78.817 24.5542 78.1491 24.8017C77.1758 25.1654 76.5172 25.2784 76.1734 25.1405C75.6983 24.9523 75.5097 24.6048 75.6074 24.0979C75.7285 23.4754 76.1925 23.0513 76.9993 22.8258C78.3995 22.4318 79.5742 22.3963 80.5234 22.7191C82.5071 23.3878 83.6938 24.2883 84.0834 25.4208C84.7487 27.3431 84.3879 28.9028 83.0009 30.1C82.4957 30.5358 81.773 30.8029 80.8328 30.9013C81.0487 31.0049 81.4037 31.3285 81.8978 31.8721C82.9649 33.0339 83.0651 34.6638 82.1983 36.7619C81.341 38.8246 79.7091 39.7848 77.3025 39.6426C75.2793 39.5193 73.773 38.8453 72.7837 37.6207C72.0985 36.7669 71.8386 35.989 72.0039 35.2869C72.1596 34.6204 72.5338 34.3323 73.1265 34.4226C73.4397 34.476 73.838 35.0359 74.3215 36.1021C74.6655 36.8645 75.5909 37.3333 77.0975 37.5086C78.9515 37.7235 80.041 37.0254 80.3661 35.4142C80.7469 33.5667 79.9032 32.1678 77.835 31.2176C76.6964 30.8059 76.2049 30.3238 76.3605 29.7715ZM89.3299 29.0771C90.744 27.8643 92.384 27.0586 94.25 26.6599C95.2117 26.453 95.7364 26.7688 95.824 27.6071C95.8552 28.0877 95.3856 28.4759 94.4152 28.7718C93.4359 29.073 92.5704 29.4465 91.8188 29.8925C90.9752 30.3976 90.0853 31.2177 89.149 32.3529C89.7669 32.0082 90.7864 32.0262 92.2075 32.407C95.5348 33.2909 96.7281 35.488 95.7876 38.9981C94.8223 42.6006 92.4387 43.9077 88.6367 42.9194C85.6021 42.1368 84.4731 40.0408 85.2495 36.6314C86.0127 33.2717 87.3728 30.7536 89.3299 29.0771ZM91.3748 34.4914C89.2289 33.9164 87.859 34.7374 87.2649 36.9543C86.6671 39.1855 87.2777 40.5448 89.0967 41.0322C91.5552 41.6909 93.0948 40.8621 93.7155 38.5457C94.2867 36.414 93.5064 35.0626 91.3748 34.4914ZM106.234 31.8588C103.485 31.122 101.558 32.8142 100.453 36.9354C99.288 41.284 99.9738 43.7982 102.51 44.4779C105.068 45.1633 106.944 43.2784 108.138 38.8232C109.214 34.8086 108.579 32.4871 106.234 31.8588ZM106.742 29.8358C110.558 30.8582 111.745 34.0589 110.304 39.4378C108.762 45.1933 105.987 47.5341 101.979 46.4603C98.0357 45.4036 96.8207 42.0508 98.3343 36.4019C99.8042 30.9164 102.607 28.7277 106.742 29.8358ZM119.121 35.3117C116.371 34.5749 114.444 36.2671 113.34 40.3883C112.174 44.7369 112.86 47.251 115.397 47.9307C117.955 48.6161 119.831 46.7313 121.024 42.2761C122.1 38.2615 121.466 35.94 119.121 35.3117ZM119.629 33.2887C123.444 34.3111 124.631 37.5118 123.19 42.8907C121.648 48.6462 118.873 50.987 114.866 49.9132C110.922 48.8565 109.707 45.5037 111.221 39.8548C112.69 34.3693 115.493 32.1806 119.629 33.2887ZM7.51039 50.9105C6.77141 50.7125 6.50423 50.2601 6.70883 49.5533L11.1824 34.2221C11.4041 33.4514 11.8932 33.1751 12.6497 33.393C13.0173 33.4991 13.2356 33.7785 13.3047 34.2311C13.7343 34.0492 14.6008 34.1405 15.9045 34.505C17.1673 34.851 18.129 35.6532 18.7895 36.9116C19.4486 38.1468 19.601 39.4252 19.2469 40.7468C18.7419 42.6601 17.9302 44.0267 16.8118 44.8465C15.5617 45.7605 14.234 46.0826 12.8289 45.8127C11.5891 45.5795 10.7949 45.1611 10.4464 44.5575C10.4412 44.5484 10.4325 44.5385 10.4202 44.5276L8.77006 50.1742C8.57688 50.8383 8.15699 51.0837 7.51039 50.9105ZM12.7596 36.5639L11.1524 42.0507C11.636 43.0027 12.2833 43.557 13.0944 43.7134C14.165 43.9241 15.078 43.7003 15.8331 43.0421C16.4758 42.4908 16.9357 41.7268 17.2126 40.7501C17.4725 39.8373 17.4202 38.9665 17.0558 38.1378C16.743 37.4294 16.148 36.893 15.2709 36.5285C14.3388 36.1417 13.5017 36.1535 12.7596 36.5639ZM31.148 38.9665C31.752 39.4406 31.7605 40.0483 31.1735 40.7896L21.3264 53.1959C20.5315 54.2014 19.8557 54.4925 19.2989 54.0692C18.6347 53.5637 18.6991 52.8118 19.4921 51.8134L22.9268 47.4789L20.692 38.0839C20.4619 37.1236 20.7042 36.5603 21.419 36.3939C22.175 36.2156 22.6636 36.6093 22.8846 37.5748L24.636 45.3209L29.3584 39.378C29.9455 38.6366 30.542 38.4995 31.148 38.9665ZM34.5915 38.267C36.2103 36.2333 38.004 35.522 39.9726 36.1333C41.0696 36.4729 41.8287 36.5392 42.2497 36.3322C42.9817 35.9876 43.5204 36.1091 43.8656 36.6966C44.1985 37.2732 44.1175 37.7885 43.6228 38.2423C43.1242 38.7103 42.5035 38.8525 41.7607 38.6687C40.0904 38.2516 38.942 38.1038 38.3154 38.2253C37.0158 38.4711 35.9302 39.4101 35.0588 41.0425C35.7157 40.495 36.759 40.4242 38.1886 40.8301C40.8811 41.5821 41.7028 43.9156 40.6537 47.8307C39.6504 51.5754 37.5603 53.0373 34.3836 52.2166C31.1714 51.3863 29.9991 49.2102 30.8667 45.6881C31.511 43.0277 32.7526 40.554 34.5915 38.267ZM37.3481 42.9011C35.2306 42.3337 33.8264 43.3397 33.1352 45.919C32.4765 48.3775 33.0424 49.8466 34.833 50.3264C36.6662 50.8176 37.9158 49.8349 38.5816 47.3783C39.2656 44.7971 38.8545 43.3047 37.3481 42.9011ZM54.4416 38.5823C54.8652 38.9624 54.9086 39.3548 54.5717 39.7595L42.614 54.1592C42.186 54.6766 41.7185 54.7303 41.2115 54.3203C40.6973 53.9083 40.6543 53.4437 41.0823 52.9263L53.2347 38.5674C53.5787 38.1645 53.981 38.1695 54.4416 38.5823ZM57.3366 49.6506L53.1636 56.1863C52.7164 56.8889 52.2032 57.0561 51.6241 56.6876C51.0962 56.3558 51.0558 55.8385 51.503 55.1359L56.9358 46.5846C57.2895 46.032 57.7477 45.8425 58.3104 46.0162C58.8846 46.1471 59.1867 46.5403 59.2167 47.1957L59.5313 54.5911L63.5013 48.3438C63.855 47.7912 64.3132 47.6017 64.876 47.7754C65.4501 47.9064 65.7522 48.2996 65.7822 48.9549L66.2115 59.077C66.2475 59.9091 65.9539 60.3369 65.3307 60.3603C64.645 60.3898 64.2842 59.9885 64.2482 59.1564L63.9021 51.4099L59.7291 57.9455C59.3498 58.5369 58.9278 58.7475 58.4632 58.5773C57.9776 58.4852 57.7174 58.0919 57.6827 57.3972L57.3366 49.6506ZM70.2796 56.2602C70.0999 57.0726 70.2738 57.8732 70.8012 58.6618C71.4086 59.5785 72.2106 60.1666 73.2073 60.426C74.6606 60.8002 75.7102 60.7768 76.3561 60.3559C76.975 59.9505 77.4457 59.7568 77.7684 59.7747C78.1285 59.795 78.3415 59.9664 78.4075 60.2887C78.5644 61.039 78.2424 61.6153 77.4416 62.0175C76.0344 62.7219 74.4089 62.8195 72.5653 62.3102C71.2119 61.9324 70.1396 61.1881 69.3481 60.0774C68.3613 58.7011 68.1059 57.1247 68.5819 55.3483C68.9741 53.8846 69.7214 52.6873 70.8237 51.7566C72.2012 50.5949 73.692 50.1757 75.296 50.4989C76.9641 50.8392 78.1381 51.5879 78.8181 52.7449C79.4636 53.8318 79.623 54.914 79.2961 55.9916C79.0335 56.858 78.5078 57.2426 77.719 57.1455L70.2796 56.2602ZM70.9853 54.5644L77.498 55.327C77.557 54.6803 77.3632 54.1105 76.9164 53.6176C76.3978 53.0522 75.7858 52.6787 75.0804 52.4973C74.0999 52.2346 73.1372 52.445 72.1925 53.1286C71.7751 53.4357 71.3727 53.9142 70.9853 54.5644ZM87.051 63.2901C87.7886 63.0384 88.2669 63.2998 88.4858 64.0744C88.6137 64.5351 88.3043 64.951 87.5575 65.3221C86.5969 65.7806 85.2791 65.7816 83.6041 65.3252C82.2844 64.964 81.3008 64.2435 80.6534 63.1637C79.848 61.8208 79.6576 60.3571 80.0822 58.7725C80.5506 57.0246 81.3215 55.6966 82.3949 54.7885C83.6965 53.6827 85.0863 53.2707 86.5644 53.5525C87.4271 53.7151 88.1762 54.0034 88.8116 54.4174C89.5933 54.9391 90.0672 55.4583 90.2334 55.975C90.4841 56.7732 90.3212 57.2817 89.7447 57.5004C89.346 57.6525 88.8706 57.3805 88.3184 56.6842C87.6527 55.8432 86.7493 55.4489 85.6082 55.501C84.9689 55.5278 84.3199 55.8184 83.661 56.373C82.9116 57.0099 82.391 57.83 82.0993 58.8332C81.8229 59.7797 81.8668 60.7244 82.231 61.6673C82.5683 62.5116 83.2012 63.0772 84.1296 63.3641C85.0864 63.6585 86.0602 63.6339 87.051 63.2901ZM89.6587 66.7762C88.8871 66.0744 88.9844 65.5407 89.9506 65.1751L93.8972 63.6623C93.0178 63.2211 92.392 62.7145 92.0197 62.1426C91.1821 60.8062 91.2519 59.5226 92.2291 58.2918C93.3372 56.9132 95.1152 56.3882 97.5632 56.7167C98.58 56.8444 99.3292 57.0185 99.8108 57.239C99.925 57.2391 100.053 57.2582 100.195 57.2963C100.748 57.4519 100.961 57.7909 100.837 58.3135L98.4543 68.1848C98.3086 68.7855 97.9603 69.0196 97.4093 68.8872C96.7466 68.7173 96.4936 68.3258 96.6502 67.7128L97.3452 64.9061C97.1921 64.8803 97.0242 64.8391 96.8414 64.7825C96.5681 64.694 96.3071 64.6165 96.0584 64.5498L91.514 66.5879C90.5952 67.0043 89.9767 67.067 89.6587 66.7762ZM98.7753 58.972C98.7662 58.9772 98.2899 58.8648 97.3463 58.6348C96.1572 58.3543 95.2298 58.4333 94.564 58.8717C93.7663 59.4043 93.4231 59.9749 93.5342 60.5835C93.7761 61.8973 95.1853 62.7775 97.7616 63.2241L98.7753 58.972ZM112.856 60.4831C113.575 60.6986 113.835 61.1794 113.635 61.9255L111.37 70.3775C111.932 70.6118 112.214 70.8779 112.218 71.176C112.219 71.2599 112.216 71.3392 112.212 71.4141C112.22 71.5534 112.201 71.7084 112.156 71.8789L111.602 73.9466C111.398 74.7069 110.975 74.9933 110.332 74.8058C109.604 74.5955 109.333 74.127 109.52 73.4004L109.844 72.1505L102.053 70.0628C101.328 69.8686 101.092 69.3829 101.346 68.6056C101.35 68.5914 101.355 68.5736 101.361 68.5523C101.379 68.3974 101.413 68.2311 101.46 68.0535L103.814 59.2255C104.014 58.4794 104.488 58.218 105.235 58.4411C105.954 58.6566 106.214 59.1374 106.014 59.8835L103.766 68.2716L109.178 69.733C109.934 66.9121 110.686 64.0903 111.435 61.2675C111.635 60.5214 112.108 60.2599 112.856 60.4831Z" fill="#FFACD4"/>
</svg>
