<svg width="130" height="76" viewBox="0 0 130 76" fill="none" xmlns="http://www.w3.org/2000/svg">
<path d="M16.1495 13.638C16.2742 13.2297 16.5744 12.9903 17.0502 12.9198C17.392 12.8667 18.3236 12.8574 19.8451 12.8919C21.1633 12.9176 21.9155 12.3843 22.1016 11.2918C22.3034 10.1121 21.6079 9.24033 20.015 8.67643C19.2984 8.42349 18.6061 8.42076 17.9381 8.66826C16.9649 9.03196 16.3063 9.1449 15.9625 9.00707C15.4874 8.81886 15.2988 8.4713 15.3965 7.96439C15.5176 7.34189 15.9815 6.91787 16.7883 6.69233C18.1886 6.29834 19.3633 6.26279 20.3125 6.58567C22.2962 7.25428 23.4828 8.15484 23.8724 9.28735C24.5378 11.2096 24.177 12.7694 22.79 13.9666C22.2848 14.4024 21.5621 14.6695 20.6219 14.7679C20.8378 14.8714 21.1928 15.195 21.6869 15.7386C22.754 16.9004 22.8542 18.5303 21.9874 20.6285C21.1301 22.6911 19.4981 23.6513 17.0916 23.5091C15.0684 23.3858 13.5621 22.7119 12.5727 21.4872C11.8876 20.6334 11.6277 19.8555 11.793 19.1535C11.9487 18.4869 12.3229 18.1988 12.9156 18.2891C13.2288 18.3425 13.6271 18.9024 14.1105 19.9687C14.4546 20.731 15.38 21.1998 16.8866 21.3751C18.7405 21.5901 19.8301 20.892 20.1552 19.2808C20.536 17.4332 19.6923 16.0343 17.6241 15.0841C16.4854 14.6724 15.9939 14.1904 16.1495 13.638ZM33.1372 12.2725C30.3873 11.5356 28.4603 13.2278 27.356 17.3491C26.1908 21.6977 26.8765 24.2118 29.4132 24.8915C31.9712 25.5769 33.8471 23.692 35.0408 19.2369C36.1165 15.2222 35.482 12.9008 33.1372 12.2725ZM33.6449 10.2495C37.4606 11.2719 38.6478 14.4725 37.2066 19.8514C35.6644 25.6069 32.8895 27.9478 28.882 26.8739C24.9384 25.8173 23.7234 22.4645 25.2371 16.8156C26.7069 11.3301 29.5095 9.14139 33.6449 10.2495ZM46.0235 15.7253C43.2736 14.9885 41.3466 16.6807 40.2423 20.8019C39.0771 25.1505 39.7628 27.6647 42.2995 28.3444C44.8575 29.0298 46.7334 27.1449 47.9272 22.6897C49.0029 18.6751 48.3683 16.3536 46.0235 15.7253ZM46.5313 13.7024C50.347 14.7248 51.5342 17.9254 50.0929 23.3043C48.5507 29.0598 45.7759 31.4006 41.7683 30.3268C37.8248 29.2701 36.6098 25.9174 38.1234 20.2684C39.5932 14.783 42.3959 12.5943 46.5313 13.7024ZM58.9098 19.1782C56.16 18.4414 54.2329 20.1336 53.1286 24.2548C51.9634 28.6034 52.6492 31.1176 55.1859 31.7973C57.7438 32.4827 59.6197 30.5978 60.8135 26.1426C61.8892 22.128 61.2546 19.8065 58.9098 19.1782ZM59.4176 17.1552C63.2333 18.1776 64.4205 21.3783 62.9792 26.7572C61.437 32.5127 58.6622 34.8535 54.6547 33.7797C50.7111 32.723 49.4961 29.3702 51.0097 23.7213C52.4796 18.2359 55.2822 16.0472 59.4176 17.1552ZM64.85 28.8578L69.9717 30.2073C70.6397 30.3863 70.9013 30.7457 70.7566 31.2858C70.6081 31.84 70.2176 32.0324 69.5852 31.8629L64.3548 30.45C63.8859 30.3244 63.7218 29.9987 63.8627 29.4728C64.0093 28.9257 64.3384 28.7207 64.85 28.8578ZM76.3605 29.7715C76.4851 29.3632 76.7854 29.1238 77.2612 29.0533C77.6029 29.0001 78.5345 28.9908 80.056 29.0254C81.3743 29.0511 82.1264 28.5177 82.3125 27.4252C82.5144 26.2456 81.8189 25.3738 80.226 24.8099C79.5093 24.557 78.817 24.5542 78.1491 24.8017C77.1758 25.1654 76.5173 25.2784 76.1734 25.1405C75.6984 24.9523 75.5097 24.6048 75.6075 24.0979C75.7286 23.4754 76.1925 23.0513 76.9993 22.8258C78.3995 22.4318 79.5742 22.3963 80.5235 22.7191C82.5072 23.3878 83.6938 24.2883 84.0834 25.4208C84.7487 27.3431 84.3879 28.9028 83.0009 30.1C82.4958 30.5358 81.773 30.8029 80.8328 30.9013C81.0488 31.0049 81.4038 31.3285 81.8978 31.8721C82.965 33.0339 83.0651 34.6638 82.1983 36.7619C81.341 38.8246 79.7091 39.7848 77.3025 39.6426C75.2793 39.5193 73.773 38.8453 72.7837 37.6207C72.0986 36.7669 71.8386 35.989 72.0039 35.2869C72.1596 34.6204 72.5339 34.3323 73.1265 34.4226C73.4397 34.476 73.838 35.0359 74.3215 36.1021C74.6655 36.8645 75.5909 37.3333 77.0975 37.5086C78.9515 37.7235 80.041 37.0254 80.3661 35.4142C80.7469 33.5667 79.9032 32.1678 77.8351 31.2176C76.6964 30.8059 76.2049 30.3238 76.3605 29.7715ZM89.33 29.0771C90.744 27.8643 92.384 27.0586 94.25 26.6599C95.2117 26.453 95.7364 26.7688 95.824 27.6071C95.8552 28.0877 95.3856 28.4759 94.4153 28.7718C93.4359 29.073 92.5704 29.4465 91.8189 29.8925C90.9753 30.3976 90.0853 31.2177 89.1491 32.3529C89.7669 32.0082 90.7864 32.0262 92.2075 32.407C95.5348 33.2909 96.7282 35.488 95.7876 38.9981C94.8223 42.6006 92.4387 43.9077 88.6367 42.9194C85.6022 42.1368 84.4731 40.0408 85.2496 36.6314C86.0127 33.2717 87.3728 30.7536 89.33 29.0771ZM91.3748 34.4914C89.2289 33.9164 87.859 34.7374 87.265 36.9543C86.6671 39.1855 87.2777 40.5448 89.0967 41.0322C91.5552 41.6909 93.0948 40.8621 93.7155 38.5457C94.2867 36.414 93.5065 35.0626 91.3748 34.4914ZM106.234 31.8588C103.485 31.122 101.558 32.8142 100.453 36.9354C99.2881 41.284 99.9738 43.7982 102.51 44.4779C105.068 45.1633 106.944 43.2784 108.138 38.8232C109.214 34.8086 108.579 32.4871 106.234 31.8588ZM106.742 29.8358C110.558 30.8582 111.745 34.0589 110.304 39.4378C108.762 45.1933 105.987 47.5341 101.979 46.4603C98.0357 45.4036 96.8207 42.0508 98.3343 36.4019C99.8042 30.9164 102.607 28.7277 106.742 29.8358ZM119.121 35.3117C116.371 34.5749 114.444 36.2671 113.34 40.3883C112.174 44.7369 112.86 47.251 115.397 47.9307C117.955 48.6161 119.831 46.7313 121.024 42.2761C122.1 38.2615 121.466 35.94 119.121 35.3117ZM119.629 33.2887C123.444 34.3111 124.631 37.5118 123.19 42.8907C121.648 48.6462 118.873 50.987 114.866 49.9132C110.922 48.8565 109.707 45.5037 111.221 39.8548C112.691 34.3693 115.493 32.1806 119.629 33.2887ZM14.5167 46.0365C13.9309 46.1765 13.3493 45.7465 12.7719 44.7465L8.90606 38.1131C8.79047 38.0897 8.67133 38.0654 8.54863 38.0402C8.33165 37.9972 8.1372 37.9413 7.96528 37.8724L6.31233 43.5297C6.10011 44.2649 5.61221 44.5225 4.84862 44.3027C4.21293 44.1171 3.99929 43.6639 4.2077 42.9429L8.49692 28.3848C8.67868 27.7633 9.09286 27.5392 9.73947 27.7125C9.90289 27.7563 10.0447 27.8095 10.165 27.8722C11.0173 28.0168 11.8816 28.2446 12.7579 28.5555C15.2716 29.4347 16.6466 30.9112 16.8829 32.9851C17.1258 35.0912 16.3434 36.7322 14.5357 37.908C13.9368 38.2958 12.9559 38.4747 11.5931 38.4447L15.185 44.1821C15.8036 45.1704 15.5808 45.7885 14.5167 46.0365ZM10.2377 30.0736L8.54767 35.8694C10.9021 36.7745 12.6125 36.772 13.6788 35.8621C14.6764 35.0098 15.0109 34.0028 14.6825 32.841C14.3744 31.7456 13.3873 30.967 11.7213 30.5054C11.2278 30.3579 10.7332 30.214 10.2377 30.0736ZM33.9104 34.4975C34.6882 34.7212 34.8956 35.4393 34.5326 36.6519L32.7535 42.6524C31.1097 48.1902 28.2033 50.3968 24.0342 49.2721C19.6875 48.0998 18.2945 44.6726 19.855 38.9906L21.4206 33.2757C21.8066 31.8636 22.3584 31.2537 23.0761 31.446C23.7847 31.6435 23.9708 32.3559 23.6343 33.5832L22.0402 39.4048C20.7837 43.9802 21.6366 46.6382 24.5987 47.3785C27.3529 48.0708 29.3664 46.2266 30.6392 41.8459L32.3863 35.8369C32.7028 34.7413 33.2108 34.2948 33.9104 34.4975ZM39.9193 37.8668L38.3321 43.279C40.6633 44.1854 42.2509 44.2719 43.0947 43.5384C44.06 42.6928 44.4421 41.7785 44.241 40.7954C43.9983 39.6262 43.0523 38.7939 41.4029 38.2986C40.9094 38.1511 40.4148 38.0072 39.9193 37.8668ZM39.4268 35.4844C39.5902 35.5282 39.7311 35.585 39.8495 35.6548C40.238 35.6827 41.0937 35.9425 42.4166 36.434C44.9842 37.3962 46.3462 38.9073 46.5025 40.9673C46.6316 42.7307 45.8371 44.1894 44.1189 45.3436C43.924 45.4741 43.701 45.5819 43.4497 45.6669C43.8877 45.9366 44.1862 46.1727 44.3452 46.3752C45.8336 48.2667 45.9345 50.1215 44.6477 51.9396C43.8731 53.0115 42.4824 53.5261 40.4757 53.4834C38.4083 53.4397 36.4676 53.0796 34.6535 52.4031C34.5948 52.395 34.5299 52.3814 34.4588 52.3624C33.8231 52.1768 33.6178 51.7067 33.8428 50.9522L38.17 36.21C38.3612 35.553 38.7802 35.3111 39.4268 35.4844ZM37.7268 45.3672L36.1845 50.6543C36.9012 50.9073 37.6075 51.0851 38.3034 51.1878C39.1259 51.3016 40.0241 51.3176 40.998 51.2358C42.0898 51.14 42.8004 50.7478 43.1296 50.0592C43.5239 49.2129 43.377 48.3967 42.689 47.6107C42.1566 47.0111 41.3434 46.5076 40.2492 46.1002C39.2224 45.7261 38.3816 45.4817 37.7268 45.3672ZM59.451 39.9246C59.8747 40.3046 59.918 40.697 59.5811 41.1018L47.6234 55.5014C47.1954 56.0188 46.7279 56.0725 46.2209 55.6625C45.7068 55.2506 45.6637 54.7859 46.0918 54.2685L58.2441 39.9096C58.5882 39.5068 58.9905 39.5118 59.451 39.9246ZM61.2954 46.3019C62.0344 46.4999 62.3025 46.9487 62.0998 47.6484L61.9721 48.0825C62.7568 47.6835 63.6048 47.6023 64.5163 47.8389C65.998 48.2207 66.8564 49.0105 67.0914 50.2082C68.098 49.3508 69.3286 49.1208 70.7833 49.5182C73.4744 50.2469 74.362 52.2211 73.446 55.4408L71.9413 60.7151C71.6967 61.5711 71.2329 61.938 70.5497 61.8159C69.7633 61.6813 69.4923 61.186 69.7369 60.3301L71.1174 55.4337C71.7094 53.3381 71.4479 52.1256 70.3328 51.7964C69.042 51.4125 67.9984 51.7687 67.202 52.8652C67.1749 52.8808 67.1027 53.0937 66.9851 53.504L65.4264 58.8095C65.1747 59.6636 64.7109 60.0305 64.0348 59.9103C63.2858 59.7781 63.0362 59.2886 63.286 58.4416L64.7034 53.578C65.2887 51.5643 65.0389 50.3931 63.9542 50.0644C62.7364 49.6924 61.7376 50.194 60.9579 51.5691L59.1974 57.4146C58.9685 58.1834 58.4865 58.4617 57.7514 58.2495C57.1157 58.0639 56.9103 57.5938 57.1354 56.8392L60.0279 47.0247C60.2192 46.3677 60.6417 46.1267 61.2954 46.3019ZM80.7609 54.3621C79.8244 54.134 79.0414 54.2708 78.412 54.7723C77.4425 55.5482 76.8026 56.5153 76.4922 57.6735C76.1933 58.7891 76.2254 59.6925 76.5885 60.3839C76.962 61.0932 77.4898 61.5392 78.172 61.722C78.9465 61.9296 79.6763 61.8205 80.3616 61.3948C81.0847 60.9413 81.6288 60.0475 81.9939 58.7136C82.6788 56.1859 82.2678 54.7354 80.7609 54.3621ZM81.2582 52.165C84.1303 52.9574 85.0173 55.3884 83.9192 59.458C83.4475 61.1898 82.7107 62.4051 81.7086 63.1038C80.5646 63.9624 79.1206 64.1505 77.3764 63.6679C76.1135 63.3219 75.1815 62.5086 74.5803 61.228C74.0377 60.0697 73.9958 58.6344 74.4546 56.9219C74.8887 55.3019 75.7494 53.9941 77.0366 52.9987C78.3058 52.0136 79.713 51.7357 81.2582 52.165ZM89.0718 53.7446C89.8179 53.9445 90.086 54.3933 89.8762 55.091C89.8139 55.2952 89.7507 55.5029 89.6864 55.7142C90.6494 55.2183 91.7349 55.1321 92.9428 55.4558C95.6268 56.1826 96.5108 58.1558 95.5948 61.3755L94.0816 66.6818C93.837 67.5378 93.3731 67.9047 92.69 67.7826C91.8964 67.6461 91.6255 67.1509 91.8772 66.2968L93.3588 61.279C93.934 59.3312 93.6468 58.1576 92.4973 57.7582C91.5286 57.4225 90.3281 57.6682 88.8956 58.4952L86.9972 64.8978C86.7684 65.6666 86.2757 65.942 85.5192 65.7241C84.8835 65.5385 84.6782 65.0685 84.9032 64.3139L87.8043 54.4673C87.9956 53.8103 88.4181 53.5694 89.0718 53.7446ZM104.114 51.8805C104.839 52.0747 105.107 52.5236 104.918 53.227C104.419 55.0351 103.943 56.6821 103.492 58.1681L105.658 58.7372C106.534 58.9643 106.876 59.4366 106.683 60.1543C106.489 60.879 105.976 61.13 105.145 60.9073C104.385 60.7036 103.625 60.4998 102.864 60.2961L100.455 68.5611C100.241 69.3337 99.7517 69.61 98.9881 69.3902C98.3524 69.2046 98.1436 68.7336 98.3615 67.9771L100.775 59.7364C99.9368 59.5117 99.1019 59.288 98.2705 59.0652C97.6594 58.9015 97.4472 58.4715 97.6338 57.7751C97.8261 57.0575 98.2597 56.7891 98.9348 56.9699C99.7519 57.1889 100.574 57.4052 101.4 57.619L102.868 52.609C103.059 51.952 103.474 51.7092 104.114 51.8805ZM111.653 53.8891C112.392 54.0871 112.659 54.5395 112.454 55.2462L110.657 61.5274C111.766 60.9412 113.059 60.846 114.537 61.242C117.2 61.9631 118.084 63.9364 117.189 67.1618L115.699 72.5541C115.461 73.412 114.997 73.7789 114.307 73.6549C113.53 73.5151 113.259 73.0198 113.494 72.1691L114.894 67.0723C115.415 65.186 115.112 64.0425 113.986 63.6417C112.702 63.1758 111.327 63.4587 109.863 64.4904L107.981 70.5774C107.745 71.3443 107.252 71.6198 106.503 71.4037C105.874 71.2201 105.669 70.75 105.887 69.9935L110.382 54.6225C110.572 53.9726 110.995 53.7282 111.653 53.8891Z" fill="#FFACD4"/>
</svg>
