<svg width="900" height="900" viewBox="0 0 900 900" fill="none" xmlns="http://www.w3.org/2000/svg">
<g opacity="0.6">
<path d="M481.903 794.026L500.448 713.207L506.768 730.934C510.622 741.744 515.246 752.263 520.606 762.411C528.669 777.677 538.356 792.028 549.499 805.215L565.022 823.585L580.687 840.062C594.367 854.452 610.309 866.507 627.882 875.749C637.08 880.587 646.675 884.628 656.562 887.828L673.91 893.442C687.268 897.766 701.385 899.241 715.349 897.772C728.02 896.439 740.322 892.708 751.598 886.777L754.859 885.062C768.094 878.101 779.907 868.721 789.685 857.406L797.868 847.939C809.252 834.767 816.959 818.824 820.211 801.72C822.268 790.901 822.505 779.814 820.911 768.917L819.448 758.918C816.67 739.922 810.476 721.586 801.165 704.797L800.263 703.169C791.475 687.323 780.2 672.99 766.867 660.719L765.145 659.134C758.198 652.74 750.768 646.89 742.921 641.638L733.364 635.241C718.024 624.972 701.856 615.998 685.027 608.412L682.063 607.075L657.848 594.34L615.283 573.988C615.073 573.888 615.189 573.57 615.415 573.629C624.855 576.112 634.472 577.871 644.18 578.892L669.955 581.604H694.201C707.603 581.604 720.976 580.336 734.14 577.819C750.486 574.693 766.409 569.658 781.581 562.818L787.403 560.194C805.877 551.866 823.111 541.024 838.616 527.976L843.906 523.525C851.686 516.978 858.787 509.664 865.101 501.693C872.201 492.732 878.263 482.995 883.171 472.669L889.715 458.902C896.487 444.656 900 429.08 900 413.306V406.181C900 393.148 896.741 380.322 890.52 368.869C886.112 360.756 880.303 353.489 873.36 347.403L870.663 345.039C863.356 338.633 855.138 333.347 846.279 329.354L841.519 327.208C834.778 324.169 827.796 321.696 820.645 319.816L818.731 319.313C805.7 315.886 792.282 314.151 778.807 314.151H775.638C761.731 314.151 747.87 315.749 734.328 318.915L718.386 322.642L704.248 327.599C681.417 335.604 659.205 345.276 637.793 356.538L621.525 365.094L585.202 386.321L609.417 356.604L641.704 318.396L665.919 280.189L686.099 237.736L689.708 226.346C695.362 208.504 699.39 190.187 701.744 171.62L703.695 156.223C705.411 142.686 705.554 128.995 704.121 115.425L703.676 111.213C702.722 102.188 700.861 93.2829 698.12 84.6319L697.168 81.6297C692.523 66.9719 685.078 53.3549 675.245 41.5339L674.168 40.2401C666.041 30.4694 656.271 22.1917 645.298 15.7793L643.295 14.6089C631.599 7.77384 618.614 3.43343 605.159 1.86081C594.615 0.628429 583.94 1.11448 573.551 3.30002L571.908 3.64576C556.732 6.83848 542.417 13.2487 529.929 22.4441L526.61 24.8877C514.642 33.6997 504.308 44.5369 496.075 56.9095L489.61 66.6235C483.395 75.9638 478.002 85.8265 473.494 96.1004L469.745 104.645C460.647 125.381 453.919 147.079 449.689 169.325L443.946 199.528L439.91 258.962V309.906L438.651 302.62C434.117 276.388 427.468 250.566 418.77 225.406L415.695 216.509L399.552 174.057L379.372 127.358L368.339 108.79C362.261 98.5597 355.055 89.0432 346.855 80.4188C341.634 74.9265 336.027 69.814 330.078 65.1203L317.223 54.9791C310.24 49.4701 302.765 44.6148 294.893 40.4746C286.658 36.1431 278.024 32.6138 269.113 29.9355L264.656 28.5962C257.741 26.5178 250.646 25.0915 243.464 24.3361L242.401 24.2243C223.705 22.2577 204.815 25.0495 187.487 32.3404C178.233 36.234 169.547 41.3594 161.665 47.5777L158.272 50.2547C147.024 59.1287 137.503 69.9954 130.184 82.3127C124.147 92.4731 119.686 103.49 116.953 114.989L114.14 126.827C110.704 141.283 108.969 156.09 108.969 170.949C108.969 187.106 111.021 203.198 115.076 218.838L115.898 222.009C119.342 235.294 124.042 248.221 129.934 260.616L137.22 275.943C150.63 298.514 166.529 319.509 184.618 338.537L185.65 339.623L213.901 369.34L215.059 370.383C233.051 386.605 252.999 400.516 274.439 411.792H250.224L209.865 416.038L183.546 422.427C166.147 426.65 149.139 432.351 132.709 439.467L114.414 447.392C97.4284 454.749 81.6534 464.632 67.6237 476.706C52.2441 489.943 39.1651 505.637 28.9188 523.151L20.5978 537.374C14.9647 547.003 10.6876 557.364 7.88783 568.162L5.66689 576.728C1.95041 591.062 1.95041 606.107 5.6669 620.442C9.87134 636.658 18.6637 651.317 30.9899 662.662L31.6726 663.291C40.0775 671.026 49.8748 677.096 60.544 681.177L66.9982 683.646C81.4037 689.156 96.6966 691.981 112.12 691.981H128.695C153.037 691.981 177.204 687.867 200.175 679.813L210.841 676.073C228.977 669.714 246.417 661.52 262.89 651.619L322.87 615.566C306.775 635.317 292.902 656.779 281.502 679.565L265.654 711.238C260.758 721.022 256.751 731.225 253.679 741.725L248.832 758.296C244.434 773.333 243.424 789.158 245.876 804.632L246.447 808.235C248.923 823.865 255.387 838.592 265.213 850.995C268.666 855.354 272.507 859.391 276.689 863.057L279.142 865.207C289.379 874.18 301.127 881.263 313.841 886.126L315.285 886.678C330.892 892.648 347.669 894.927 364.303 893.336C376.941 892.128 389.269 888.707 400.723 883.231L416.524 875.676C424.023 872.09 431.13 867.737 437.732 862.687C460.007 845.647 475.63 821.361 481.903 794.026Z" fill="#18181A"/>
<circle cx="449.06" cy="471.559" r="121.201" fill="#252528"/>
</g>
</svg>
